<?xml version="1.0" encoding="UTF-8"?>
<svg id="Ebene_1" data-name="Ebene 1" xmlns="http://www.w3.org/2000/svg" viewBox="0 0 347.39 310.27">
  <defs>
    <style>
      .cls-1 {
        fill: #fff;
      }

      .cls-2 {
        fill: #f5a003;
      }

      .cls-3 {
        fill: #1c3f6f;
      }
    </style>
  </defs>
  <path class="cls-3" d="m347.19,214.22c-2.9-42.63-35.12-80.87-71.98-85.41-36.85-4.53-64.38,26.35-61.48,68.99s35.12,80.87,71.98,85.41c36.85,4.53,64.38-26.35,61.48-68.99Zm-54.34,61.69c-30.21-4.89-57.56-38.65-61.07-75.41-3.51-36.75,18.13-62.58,48.35-57.69,30.21,4.89,57.56,38.65,61.07,75.41,3.51,36.75-18.13,62.58-48.35,57.69Z"/>
  <path class="cls-3" d="m176.98,217.52c-3.76-56.89-46.36-107.85-95.16-113.83S-3.49,138.99.27,195.87c3.76,56.89,46.36,107.85,95.16,113.83,48.8,5.98,85.31-35.29,81.56-92.18Zm-72.09,82.43c-40.01-6.47-76.15-51.47-80.73-100.5-4.58-49.04,24.14-83.55,64.14-77.08,40.01,6.47,76.15,51.47,80.73,100.5s-24.14,83.55-64.14,77.08Z"/>
  <path class="cls-3" d="m157.73,97.25l26.12,96.11c.47,1.73-.85,3.42-2.64,3.39l-55-1.12c-4.93-.1-9.71-1.69-13.72-4.55l-37.95-27.11-17.1,20.49,31.28,25.21c7.55,6.09,16.78,9.72,26.46,10.41h.08s155.03-10.39,155.03-10.39l3.6-.15c4.05-.16,8.01,1.15,11.16,3.71l17.31,14.04,4.77-6.17-23.58-18.48c-2-1.57-4.45-2.46-7-2.54l-71.83-2.22c-1.26-.04-2.31-.99-2.47-2.24l-12.74-97.23-31.76-1.15Z"/>
  <path class="cls-2" d="m289.13,118.34L49.62,86.17c-5.83-.78-10.99-5.88-11.53-11.39L31.65,8.66C31.11,3.15,35.41-.68,41.24.1l239.51,32.16c5.83.78,10.99,5.88,11.53,11.39l6.44,66.13c.54,5.51-3.76,9.34-9.59,8.55Z"/>
  <g>
    <path class="cls-1" d="m82.54,59.97c-2.36.64-6.97,1.6-12.18.92-5.85-.76-10.43-3.12-13.67-7.82-2.84-4.17-4.12-10.45-3.21-17.45,1.81-13.41,10.99-22.19,23.94-20.5,4.47.58,7.82,2.17,9.36,3.32l-1.82,4.58c-1.92-1.34-4.39-2.54-8.28-3.05-9.4-1.22-16.42,4.78-17.88,16.06-1.49,11.41,3.54,18.92,12.53,20.09,3.27.43,5.57.18,6.8-.34l1.75-13.42-7.85-1.02.61-4.67,12.72,1.66-2.82,21.62Z"/>
    <path class="cls-1" d="m105.54,65l.13-4.12-.17-.02c-1.88,2.33-5.15,4.22-9.11,3.7-5.61-.73-7.88-5.71-7.27-10.38,1.02-7.81,7.53-11.3,18.24-9.84l.09-.67c.35-2.67.34-7.56-5.33-8.3-2.58-.34-5.39.25-7.53,1.46l-.64-4.02c2.52-1.44,5.99-2.14,9.48-1.68,8.48,1.1,9.67,8.12,8.82,14.59l-1.57,12.08c-.36,2.8-.61,5.55-.55,7.8l-4.58-.6Zm1.4-16.58c-5.48-.85-11.88-.53-12.69,5.74-.5,3.8,1.45,5.89,4.03,6.23,3.61.47,6.25-1.9,7.41-4.53.25-.58.45-1.23.53-1.83l.73-5.61Z"/>
    <path class="cls-1" d="m120.7,44.37c.5-3.8.86-7.08,1.08-10.11l4.41.58-.65,6.36.23.03c1.83-4.17,5.22-6.52,8.6-6.07.57.07.96.19,1.41.39l-.72,5.54c-.5-.2-1-.33-1.69-.42-3.55-.46-6.48,2.35-7.74,6.66-.22.79-.46,1.71-.59,2.71l-2.24,17.22-4.98-.65,2.89-22.23Z"/>
    <path class="cls-1" d="m166.09,24.7l-5.09,39.04c-.37,2.87-.74,6.15-.86,8.37l-4.53-.59.5-5.64h-.12c-2.02,3.39-5.75,5.68-10.28,5.09-6.7-.87-11-8.15-9.72-17.96,1.34-10.75,7.93-16.61,14.69-15.73,4.24.55,6.8,3.26,7.72,6.03h.11s2.51-19.27,2.51-19.27l5.04.66Zm-8.72,27.57c.1-.73.17-1.74.09-2.5-.26-3.83-2.61-7.26-6.39-7.76-5.21-.68-9,4.26-9.93,11.4-.85,6.54,1.19,12.31,6.64,13.01,3.38.44,6.81-1.76,8.31-6.04.28-.78.44-1.57.56-2.51l.73-5.61Z"/>
    <path class="cls-1" d="m183.64,75.17l.13-4.12-.17-.02c-1.88,2.33-5.15,4.22-9.11,3.7-5.62-.73-7.88-5.71-7.27-10.38,1.02-7.81,7.53-11.3,18.24-9.84l.09-.67c.35-2.67.34-7.56-5.33-8.3-2.58-.34-5.39.25-7.53,1.46l-.64-4.02c2.52-1.44,5.99-2.14,9.48-1.68,8.48,1.1,9.67,8.11,8.82,14.59l-1.57,12.08c-.36,2.8-.61,5.55-.55,7.8l-4.58-.6Zm1.4-16.58c-5.48-.85-11.88-.53-12.7,5.74-.5,3.8,1.45,5.89,4.03,6.23,3.61.47,6.25-1.9,7.41-4.53.25-.58.45-1.23.53-1.83l.73-5.61Z"/>
    <path class="cls-1" d="m195.99,70.67c1.34,1.33,3.82,2.87,6.34,3.2,3.67.48,5.67-1.43,6.01-4.1.37-2.8-.87-4.53-4.38-6.61-4.72-2.72-6.65-6.23-6.14-10.1.68-5.21,4.85-9.01,10.8-8.23,2.81.37,5.15,1.62,6.56,2.89l-1.82,4.11c-.98-.94-2.85-2.27-5.43-2.61-2.98-.39-4.9,1.4-5.21,3.8-.35,2.67,1.16,4.09,4.56,6.16,4.54,2.76,6.63,5.89,6.01,10.69-.74,5.67-5.04,9.18-11.63,8.33-3.04-.4-5.73-1.63-7.51-3.22l1.84-4.31Z"/>
    <path class="cls-1" d="m223.36,65.01c-.92,7.96,3.01,11.8,8.05,12.45,3.61.47,5.88.02,7.9-.67l.31,4.32c-1.9.7-5.07,1.38-9.49.8-8.54-1.11-12.79-8.32-11.52-18.06,1.27-9.75,7.2-16.78,15.28-15.73,9.05,1.18,10.25,10.77,9.48,16.71-.16,1.2-.39,2.12-.53,2.71l-19.48-2.54Zm15.33-2.28c.54-3.73-.08-9.72-5.75-10.45-5.1-.66-8.05,4.52-8.98,8.54l14.73,1.92Z"/>
    <path class="cls-1" d="m252.07,68.75c-.92,7.96,3.01,11.8,8.05,12.45,3.61.47,5.88.02,7.9-.67l.31,4.32c-1.9.7-5.07,1.38-9.49.8-8.54-1.11-12.79-8.32-11.52-18.06,1.27-9.74,7.2-16.78,15.28-15.73,9.05,1.18,10.25,10.77,9.48,16.71-.16,1.2-.39,2.12-.53,2.71l-19.48-2.54Zm15.33-2.28c.54-3.73-.07-9.72-5.75-10.45-5.1-.66-8.05,4.52-8.98,8.54l14.73,1.92Z"/>
  </g>
  <g>
    <path class="cls-3" d="m125.09,87.51l1.76-12.99,5.76.78c1.45.2,2.48.46,3.11.78.62.32,1.09.81,1.41,1.46.31.65.42,1.36.31,2.13-.13.97-.54,1.74-1.22,2.29-.68.55-1.63.83-2.84.84.55.41.98.84,1.32,1.29.33.45.75,1.22,1.27,2.32l1.31,2.76-3.27-.44-1.59-3.09c-.56-1.11-.96-1.81-1.18-2.1s-.47-.52-.75-.65c-.28-.14-.73-.25-1.36-.33l-.55-.08-.74,5.42-2.74-.37Zm3.75-7.12l2.02.27c1.31.18,2.14.24,2.48.17.34-.06.62-.21.84-.45.22-.23.36-.55.41-.94.06-.44-.01-.81-.22-1.11-.21-.3-.53-.52-.96-.65-.22-.06-.88-.17-1.99-.32l-2.13-.29-.45,3.3Z"/>
    <path class="cls-3" d="m153.8,91.41l-2.98-.4-.78-3.11-5.42-.73-1.52,2.8-2.9-.39,7.04-12.27,2.89.39,3.66,13.72Zm-4.34-5.82l-1.21-5.07-2.48,4.57,3.7.5Z"/>
    <path class="cls-3" d="m159.85,79.01l5,.68c1.13.15,1.98.35,2.55.6.76.33,1.39.82,1.88,1.47.49.65.82,1.41,1.01,2.28.18.87.19,1.91.03,3.13-.15,1.07-.41,1.97-.79,2.71-.47.9-1.05,1.6-1.76,2.1-.53.38-1.22.64-2.06.78-.63.1-1.45.08-2.46-.05l-5.15-.7,1.76-12.99Zm2.44,2.57l-1.17,8.6,2.04.28c.76.1,1.32.14,1.67.1.46-.05.85-.18,1.18-.39.33-.21.62-.6.89-1.16.26-.56.46-1.34.6-2.34.14-1,.15-1.79.04-2.35-.11-.56-.31-1.02-.6-1.36-.29-.35-.69-.61-1.18-.78-.37-.13-1.11-.28-2.23-.43l-1.23-.17Z"/>
    <path class="cls-3" d="m177.65,94.65l1.47-10.79-4.02-.55.3-2.2,10.77,1.46-.3,2.2-4.01-.54-1.47,10.79-2.74-.37Z"/>
    <path class="cls-3" d="m188.97,89.66c.18-1.32.54-2.41,1.07-3.25.4-.62.9-1.16,1.5-1.61.6-.45,1.24-.76,1.91-.93.89-.23,1.89-.27,2.99-.12,2,.27,3.51,1.08,4.55,2.43,1.04,1.35,1.41,3.08,1.13,5.2-.28,2.1-1.1,3.66-2.45,4.68-1.35,1.02-3.02,1.4-5.01,1.13-2.01-.27-3.54-1.08-4.57-2.42-1.03-1.34-1.4-3.04-1.12-5.11Zm2.83.29c-.2,1.47,0,2.63.61,3.49.61.86,1.45,1.36,2.54,1.5,1.09.15,2.04-.11,2.84-.77.8-.66,1.3-1.74,1.51-3.25.2-1.49.01-2.65-.57-3.47-.58-.82-1.44-1.31-2.56-1.47-1.13-.15-2.09.09-2.88.74-.79.65-1.29,1.72-1.49,3.21Z"/>
    <path class="cls-3" d="m207.96,85.54l2.73.37-.96,7.03c-.15,1.12-.22,1.84-.19,2.18.04.55.27,1.01.66,1.39.4.38.98.62,1.74.73.78.11,1.38.03,1.82-.22.44-.25.72-.59.86-1.02.14-.43.28-1.16.42-2.19l.98-7.19,2.74.37-.93,6.82c-.21,1.56-.44,2.65-.67,3.27-.24.62-.58,1.13-1.04,1.52-.46.39-1.04.67-1.74.84-.7.17-1.59.19-2.66.04-1.29-.18-2.26-.45-2.89-.83-.63-.38-1.11-.82-1.43-1.33-.33-.51-.52-1.03-.57-1.54-.08-.77-.02-1.88.18-3.33l.94-6.93Z"/>
    <path class="cls-3" d="m222.73,100.77l1.76-12.99,5.76.78c1.45.2,2.48.46,3.11.78.62.32,1.09.81,1.41,1.46.31.65.42,1.36.31,2.13-.13.97-.54,1.74-1.22,2.29-.68.55-1.63.83-2.84.84.55.41.99.84,1.32,1.29.33.45.76,1.22,1.27,2.32l1.31,2.76-3.27-.44-1.59-3.09c-.56-1.11-.96-1.81-1.18-2.1s-.47-.52-.75-.65c-.28-.14-.73-.25-1.36-.33l-.55-.08-.74,5.42-2.74-.37Zm3.75-7.12l2.02.27c1.31.18,2.14.24,2.48.17.34-.06.62-.21.84-.45.22-.23.36-.55.41-.94.06-.44-.01-.81-.22-1.11-.21-.3-.53-.52-.96-.65-.22-.06-.88-.16-1.99-.32l-2.13-.29-.45,3.3Z"/>
    <path class="cls-3" d="m239.23,103.01l1.76-12.99,10.04,1.36-.3,2.2-7.31-.99-.39,2.88,6.8.92-.3,2.19-6.8-.92-.48,3.54,7.57,1.03-.3,2.19-10.3-1.4Z"/>
    <path class="cls-3" d="m254.72,105.11l1.76-12.99,2.66.36,4.37,9.43,1.18-8.67,2.54.34-1.76,12.99-2.74-.37-4.31-9.21-1.15,8.47-2.54-.35Z"/>
  </g>
</svg>