<?xml version="1.0" encoding="UTF-8"?>
<svg xmlns="http://www.w3.org/2000/svg" viewBox="0 0 393.29 563.71">
  <defs>
    <style>
      .cls-1 {
        fill: #fff;
      }

      .cls-2 {
        fill: #36a9e1;
      }

      .cls-3 {
        fill: #1c3f6f;
      }

      .cls-4 {
        fill: #f39200;
      }

      .cls-5 {
        fill: #183f72;
      }
    </style>
  </defs>
  <g id="See">
    <g>
      <path class="cls-2" d="m190.35,393.55s-.01.02-.02.03c0,0,0,0,0,.01l.02-.04Z"/>
      <path class="cls-2" d="m192.35,388.56s-.01,0-.02.01c0,0,0,.01,0,.02l.02-.03Z"/>
      <path class="cls-2" d="m205.35,352.56s-.02,0-.03,0c0,0,0,.02,0,.03l.03-.03Z"/>
      <path class="cls-2" d="m223.32,419.63s0,.01,0,.02c0,0,.01,0,.02,0l-.02-.02Z"/>
      <path class="cls-2" d="m196.34,377.56s-.01.01-.02.02c0,0,0,0,0,0l.02-.03Z"/>
      <path class="cls-2" d="m199.34,371.56s-.01,0-.02,0v.02l.02-.03Z"/>
      <path class="cls-2" d="m204.35,353.56s-.01,0-.02,0c0,0,0,.01,0,.02l.02-.02Z"/>
      <path class="cls-2" d="m203.35,354.56s-.01,0-.02,0c0,0,0,.01,0,.02l.02-.02Z"/>
      <path class="cls-2" d="m197.34,375.56s-.01,0-.02,0c0,0,0,0,0,.01v-.02Z"/>
      <path class="cls-2" d="m238.29,473.65s0,0,0,0c0,0,0,0,.01,0h-.01Z"/>
      <path class="cls-2" d="m198.34,373.56s-.01,0-.02,0c0,0,0,.01,0,.02l.02-.03Z"/>
      <path class="cls-2" d="m231.42,441.65s0,0,0,0c0,0,0-.01,0-.02v.02Z"/>
      <path class="cls-2" d="m226.34,535.53s-.02,0-.03,0c0,0,0,.02,0,.03l.03-.03Z"/>
      <path class="cls-2" d="m227.34,533.54s0,0-.02,0c0,0,0,.01,0,.02l.02-.03Z"/>
      <path class="cls-2" d="m225.35,536.54s-.01,0-.02,0c0,0,0,.01,0,.02l.03-.03Z"/>
      <path class="cls-2" d="m224.36,537.54s-.02,0-.03,0c0,0,0,.02,0,.03l.03-.04Z"/>
      <path class="cls-2" d="m223.34,539.53s-.02,0-.03,0c0,0,0,.02,0,.03l.03-.03Z"/>
      <path class="cls-2" d="m240.29,476.65s0,.01,0,.02c0,0,.02,0,.02,0l-.03-.02Z"/>
      <path class="cls-2" d="m240.34,499.54s-.01,0-.02.01c0,0,0,.01,0,.02l.02-.03Z"/>
      <path class="cls-2" d="m239.3,475.64s0,.01,0,.02c0,0,.01,0,.02,0l-.02-.03Z"/>
      <path class="cls-2" d="m238.34,505.54s-.02,0-.03.01c0,0,0,.01,0,.02l.02-.03Z"/>
      <path class="cls-2" d="m239.34,502.54s-.02,0-.03.01c0,0,0,.01,0,.02l.02-.03Z"/>
      <path class="cls-2" d="m232.34,522.54s-.02.01-.02.02c0,0,0,0,0,0l.02-.03Z"/>
      <path class="cls-2" d="m335.33,111.58s-.03,0-.04,0c0,.02,0,.03,0,.05l.04-.05Z"/>
      <path class="cls-2" d="m338.33,98.59s-.02,0-.03,0c0,0,0,.01,0,.02l.03-.03Z"/>
      <path class="cls-2" d="m222.34,540.53s-.01,0-.02,0c0,0,0,.01,0,.02l.02-.02Z"/>
      <path class="cls-2" d="m334.33,112.59s-.02,0-.03,0c0,0,0,.01,0,.02l.03-.02Z"/>
      <path class="cls-2" d="m324.32,120.59s-.02,0-.02,0c0,0,0,.02,0,.03l.02-.03Z"/>
      <path class="cls-2" d="m325.34,118.6s-.02,0-.03,0c0,0,0,.01,0,.02l.03-.03Z"/>
      <path class="cls-2" d="m329.33,115.59s-.01,0-.02,0c0,0,0,.01,0,.02l.03-.02Z"/>
      <path class="cls-2" d="m351.32,46.6s-.01,0-.02,0c0,0,0,.01,0,.02l.02-.02Z"/>
      <path class="cls-2" d="m339.33,97.59s-.03,0-.04,0c0,.02,0,.03,0,.05l.04-.05Z"/>
      <path class="cls-2" d="m352.3,45.62l.02-.02s-.01,0-.02,0c0,0,0,.01,0,.02Z"/>
      <path class="cls-2" d="m350.32,47.61s-.01.01-.02.02c0,0,0,0,0,0l.02-.02Z"/>
      <path class="cls-2" d="m349.32,53.6s0,0-.01,0c0,.01,0,.02,0,.03l.02-.03Z"/>
      <path class="cls-2" d="m288.33,201.58s-.02,0-.03,0c0,0,0,.02,0,.03l.03-.03Z"/>
      <path class="cls-2" d="m287.34,202.57s-.02,0-.03,0c0,.01,0,.02,0,.03l.03-.03Z"/>
      <path class="cls-2" d="m206.34,350.56s-.01,0-.02,0c0,0,0,.02,0,.03l.02-.03Z"/>
      <path class="cls-2" d="m281.35,205.58s0,0,0,0c0,.01-.02.02-.02.03l.03-.03Z"/>
      <path class="cls-2" d="m212.35,329.57s-.02.01-.03.02c0,0,0,0,0,.01l.03-.03Z"/>
      <polygon class="cls-2" points="295.33 168.59 295.32 168.59 295.32 168.6 295.33 168.59"/>
      <path class="cls-2" d="m320.33,129.58s-.02,0-.03,0c0,0,0,.02,0,.03l.03-.03Z"/>
      <path class="cls-2" d="m313.34,133.58s0,0-.01,0c0,0-.01.02-.02.03l.03-.02Z"/>
      <path class="cls-2" d="m321.33,127.59s-.02,0-.03,0c0,0,0,.02,0,.03l.03-.04Z"/>
      <path class="cls-2" d="m300.33,163.58s-.01,0-.02,0c0,0,0,.01,0,.02l.02-.03Z"/>
      <path class="cls-2" d="m309.33,136.59s-.02,0-.03,0c0,0,0,.02,0,.03l.02-.02Z"/>
      <path class="cls-2" d="m311.33,134.59s0,0-.01,0c0,0,0,.01,0,.02l.02-.02Z"/>
      <path class="cls-2" d="m202.36,355.55s-.02,0-.03,0c0,.01,0,.02,0,.04l.03-.03Z"/>
      <path class="cls-2" d="m75.47,508.52s0,0,0-.01c0,0-.02,0-.02,0h.03Z"/>
      <path class="cls-2" d="m74.45,507.55s0,0,0,0c0,0-.01,0-.02,0h.02Z"/>
      <path class="cls-2" d="m106.47,421.55s0-.01,0-.02c-.01,0-.02,0-.03,0l.03.02Z"/>
      <path class="cls-2" d="m89.48,535.53s0-.02,0-.02c0,0-.02,0-.03,0l.02.02Z"/>
      <path class="cls-2" d="m130.37,526.54s0,0,0,0c0,0-.02.01-.02.02l.02-.02Z"/>
      <path class="cls-2" d="m107.46,422.54s0-.01,0-.02c0,0-.01,0-.02,0l.02.02Z"/>
      <path class="cls-2" d="m92.45,537.54s0,0,0,0c0,0,0,0-.01,0h.02Z"/>
      <path class="cls-2" d="m123.36,535.53s-.02,0-.03,0c0,.01,0,.03,0,.04l.03-.03Z"/>
      <path class="cls-2" d="m116.39,541.53s-.03,0-.05,0c0,.01,0,.03,0,.04l.05-.04Z"/>
      <path class="cls-2" d="m94.44,538.55s0-.01,0-.02c0,0-.01,0-.02,0l.03.02Z"/>
      <path class="cls-2" d="m96.44,539.55s0-.01,0-.02c0,0-.01,0-.02,0l.03.02Z"/>
      <path class="cls-2" d="m100.36,416.55s-.02,0-.03,0c0,0,0,.02,0,.02l.02-.03Z"/>
      <path class="cls-2" d="m332.3,22.67s0,.03,0,.04c0,0,0,0,.01,0v-.04Z"/>
      <path class="cls-2" d="m335.3,29.69s0,0,0,0c0,0,.01,0,.02,0h-.02Z"/>
      <path class="cls-2" d="m334.3,27.67s0,0,0,.01c0,0,.01,0,.02.01l-.02-.03Z"/>
      <path class="cls-2" d="m350.3,37.69c-1.8-.48-.96-1.93-1.08-3.02-.03-1.03-.06-2-1.54-1.94-1.25.05-2.7.59-3.48-1.02-1.52-.43-2.73.59-4.09.85-1.21.23-2.55.41-3.69-.46-.81-.61-1.4-1.31-1.11-2.41-1.32-.17-1.09-1.12-1-2.01-2.31-1-1.96-3.07-2-4.98-.98-.11-1.19-1.03-1.7-1.63-1.61-1.9-2.74-1.85-4.26,0-.95,1.15-.89,2.43-.91,3.76-.08,6.09.65,12.25-1.82,18.13-.42,1-.15,2.31-.16,3.47-.04,2.66.03,5.33-.1,7.99-.21,4.37-1.24,8.6-4.38,11.76-2.07,2.08-3.06,4.15-2.6,7.04.21,1.3.12,2.66.06,3.99-.28,6.5-3.27,11.47-8.29,15.57-3.85,3.14-8.44,4.26-12.9,5.88-.79,5.42-1.82,6.38-7.46,6.89-.16,1.82-.29,3.64-.48,5.45-.68,6.74-1.91,13.28-5.66,19.17-1.64,2.58-2.8,5.39-3.62,8.53-1.59,6.14-2.02,12.83-5.88,18.17-4.27,5.89-7.66,12.39-12.49,17.89-1.34,1.52-2.6,3.15-2.24,5.3.71,4.2-1.39,7.06-4.47,9.31-3.38,2.47-6.02,5.63-8.97,8.5-2.36,2.29-3.5,4.52-3.71,7.66-.18,2.78-1.54,4.97-4.27,6.19-1.8.81-3.45,1.97-5.25,2.78-3.43,1.53-6.2,3.89-8.43,6.79-2.3,3-4.34,6.21-6.42,9.38-4.09,6.23-8.46,12.21-13.63,17.63-4.18,4.39-9.14,7.57-14.34,10.5-4.36,2.45-7.31,5.88-8.75,10.87-1.58,5.5-3.71,10.86-5.77,16.21-4.48,11.6-11.59,21.02-22.71,27.1-4.14,2.26-5.2,4.97-4.49,9.69.3,1.96.39,4.01.2,5.97-.59,5.82-5.9,9.48-11.59,8.17-1.44-.33-2.88-.58-4.32-.99-3.19-.91-5.86.23-7.71,3.04-.45.69-.89,1.41-1.19,2.17-1,2.5-3.08,3.32-5.49,3.53-1.49.13-3.02.21-4.49.02-3.02-.39-5.64.59-7.81,2.43-4.28,3.63-9.07,6.73-12.16,11.64-.76,1.21-1.69,2.47-3.18,3.01-1,1.78-2.89,1.31-3.94.79-3.6-1.79-6.29-.19-9.12,1.66-2.47,1.61-5.02,3.06-7.99,3.7-1.58.34-3.15,1.11-4.49,2.02-1.38.94-2.52,2.29-.51,3.86.35.06.69.11,1.04.17,2.64-.1,5.29-.21,7.93-.31.59-1.53,1.86-1.07,2.99-1.01.54-1.69,1.88-1.04,3.01-1h-.02c2.67-1.45,4.35-1.45,7.09.02v-.03c4.36.51,8.7,1.12,13.14,1.13,2.66,0,3.79,1.93,3.8,5.25,0,1.65-.51,3.53.11,4.89.8,1.73,3.07.11,4.5.95.23.13.3.53.45.81h-.02c1.66,1.01,1.74,2.04,0,3.08h.02c.15,1.16.53,2.41-1,3.02l.05.02c-1.76,2.52-4.59,3.52-7.13,4.87-1.63.87-2.95,1.91-3.92,3.44-1.14,1.8-2.39,3.4-4.32,4.54-1.52.9-2.7,2.37-3.36,4.13-.6,1.6-.65,3.27-.21,4.84.48,1.71,2.33.65,3.39,1.29.23.14.33.49.49.75,3.03.28,3.03.29,3.04,3.97h-.03c1.63.34,3.26.68,4.89,1.01-.09-.75.27-1.06.99-.99-.12-.89-.31-1.82,1-1.99-.19-1.15-.4-2.51,1.04-2.81,1.72-.36,3.25.43,3.91,2.12.7,1.8,1.36,3.66,1.18,5.66.62.04.99.33.99.99.87-.06,1.73-.09,2,1.03v-.03c.26.19.7.34.75.57,1.32,6.33.29,11.84-5.55,15.65-.41.27-.82.55-1.23.83-5.47,3.7-8.29,8.82-8,15.46.15,3.32-1.22,5.87-3.8,7.61-1.6,1.09-3.22,2.2-4.98,3.13-5.3,2.79-9.85,6.45-12.54,12.14-1.91,4.05-4.62,7.58-9.03,9.34-2.08.83-3.6,2.4-4.92,4.09-2.32,2.99-2.66,6.65-1.29,9.86,1.37,3.21,4.51,4.67,8.2,4.44,1.99-.12,3.98-.09,5.98-.14.74-.02,1.25.26,1.39,1.04.71-.07,1.03.27,1.02.96,1.02-.1,2.01.02,2.95.46q4.19-.36,4.78,2.61c.14,1.29.07,2.52-.2,3.83-.48,2.34-1.69,4.54-1.43,7.02,5.39.68,7.29,4.03,6.81,9.39-.04.49-.1.98-.15,1.47.92.46,1.51,1.1,1.24,2.22,1.69-.35,2.38.76,2.97,2.03.9-.13,1.78-.23,1.99,1,.87-.08,1.84-.34,2,1,3.43-.66,6.56,1.21,9.92,1.21,1.07-.07,2.21-.57,3.11.47,2.29.11,4.58.21,6.88.32.08-1.24,1.07-1.59,1.99-2,.76-1.24,1.71-2.28,3.03-2.95.34-.96,1-1.3,1.98-1.04-.11-3.57,2.51-5.77,4.31-8.36.57-.83,1.73-.77,2.73-.63,1.64-1.68,3.76-2.42,5.96-2.99.08-3.32.17-6.64.25-9.97-.15-2.28-.3-4.55-.45-6.83-2.88.03-4.15-1.99-5.28-4.18-1.19.12-2.41.15-2.53-1.45-.12-1.56-.58-3.39,1.82-3.79.52-.9,1.36-.87,2.22-.78.02-.64.35-.97.99-.99-.12-1.64-.06-3.22.95-4.67,1.3-1.87,2.38-1.82,4.4.34,2.41.94,1.64,2.91,1.52,4.67,2.99,2.84,2.44,6.05.99,9.35,1.71,4.32,1.55,8.57.04,12.98-1.46,4.28-1.77,8.66.83,12.79.4.64.34,1.58.49,2.38l-.11.11c.75-.08,1.09.25,1.01,1,.75-.08,1.08.26,1,1.01v-.02c.92-.15,1.79-.21,1.97,1.03.88-.08,1.79-.25,2,1,5.07.06,10.14.38,15.21-.07.99-.09,2.39-.61,2.78,1.08.73-.06,1.03.32,1.01,1,.7-.03.95.39,1,1.01,1.11.24,1.25,1.01,1.04,1.96h-.03c.75-.08,1.09.26,1.01,1.01.74-.08,1.07.25,1,.99.91-.17,1.76-.2,1.99,1,.86-.05,1.82-.29,2,1.02v-.02c4.88.05,9.64,1.49,14.54,1.28.13,0,.28.48.43.75.88-.09,1.83-.32,2.01,1,1.53-.12,3.03-.19,3,2.02h0c2.17-.04,2.12,1.45,2.03,2.97,2.53,1.2,3.87,3.19,3.99,6,.74-.08,1.07.25.99.98.95-.22,1.71-.06,1.99,1.02,2.96,1.92,5.92,1.21,8.88.02,0-1.11-.5-2.39,1-2.99-.36-3.36.35-6.75-.76-10.12-.55-1.66.58-3.13,2.76-2.9,0-2,1-3,3-2.99-.1-.76.24-1.1,1-1-.1-.76.24-1.1,1-1-.1-.76.24-1.1,1-1-.09-.76.23-1.1.99-1-.28-.98-.08-1.71,1.02-1.98.04-.62.29-1.04,1-1.01,0-.67.22-1.11.99-1.01-.18-.93-.17-1.76,1.02-1.99,1.13-3.91,1.71-8.06,4.99-10.99.12-5.23,1.76-9.91,5.02-14.02l-.02.03c-.03-1.13-.69-2.47,1-3.02-.03-1.12-.68-2.45,1-3-.06-1.13-.6-2.43,1-3,.02-3.91.14-7.77-1.62-11.51-.87-1.85-1.16-4.25,1.42-5.56.19-1.26.37-2.52.56-3.78-.13-.68-.25-1.36-.38-2.04-.67,0-.92-.41-.99-1.01-1.05-.3-1.2-1.06-1.01-2-2.11-.8-2.79-2.51-2.92-4.58-.11-1.8-.25-3.59-.38-5.39-1.15-1.24-.45-2.72-.5-4.1-.02-5.13-.17-10.26,0-15.38.08-2.51-1.3-2.6-3.06-2.56.03,1.91-1.32,1.98-2.67,1.89-1.32-.09-1.41-1.13-1.39-2.15.03-1.62-.15-3.27.55-4.82-.8-.69-1.59-1.38-2.39-2.07-1.39-.23-1.12-1.16-.89-2.08l.03-2.64c-.27-.64.03-.99.6-1.2l2.1-2.94c-1.44-1.93-4.09-3.05-4.04-5.99-2.54-.25-2.41-2.31-2.73-4.07-.33-3.69-1.4-7.31-1.14-11.06-2.45-.11-4.73-.58-6.09-2.94-.64-.14-.96-.48-.7-1.16-.12-.61-.23-1.22-.35-1.83-.99.01-1.99.02-2.98.03-7.13.09-6.85-1.35-10.07,5.95-1.58,3.6-4.89,4.63-8.46,5.02-.96.1-2.1.08-2.36-1.22-.99-5.13-1.83-10.25,1.88-14.79.05-1.92-.33-4.01,2-5.01-.08-4.18.79-8.01,4-10.99-.12-.9-.33-1.84,1-2.02-.18-.92-.27-1.81,1-2-.14-.9-.29-1.82,1-2,0-2.64,0-5.29,0-7.93l.02.02c-1.59-2.31-1.59-3.64.01-6.09l-.03.03c.06-2.07,1.37-2.29,2.99-2.05-.1-.76.24-1.09,1-.99-.1-.77.24-1.09,1-1-.09-.76.23-1.1.99-1-.24-.95-.21-1.77,1.01-1.99-.44-4.24.04-8.1,3.71-11.04,1.54-1.23,1.08-3.3,1.31-5.08.21-1.63-.95-3.59.98-4.86-.33-5.26,2.32-9.51,4.75-13.81.55-.98,1.43-1.86,2.63-2.2,4.76-1.35,6.88-5.2,8.81-9.24,3.34-6.99,6.53-14.06,10.05-20.96,2.17-4.26,4.78-8.29,7.31-12.36.79-1.27,1.44-2.54,1.97-3.95,3.15-8.39,8.35-15.71,12.43-23.62,4.47-8.67,9.84-16.79,15.52-24.72.86-1.19,1.59-2.52,1.73-4.07.19-2.05-1.11-4.28.77-6.12.25-1.78,1.17-2.87,3.05-2.97,1.4-2.17,3.39-3.17,5.97-3.01-.09-.76.24-1.09,1-1-.08-3.13,1.93-5.41,3.26-7.96-.14-.97-.29-1.94-.43-2.91-3.24-1.55-3.79-2.51-1.93-5.27,1.43-2.12,1.12-3.83.1-5.78l.02.02c-1.55-1.49-1.55-2.58,0-4.09l-.02.02c.69-3.43,2.35-5.37,6.01-7.01.77-2.56,2.28-4.38,4.99-5-.19-1.01.07-1.91.59-2.78,2.61-4.32,3.85-8.94,3.57-14.05-.15-2.77.83-5.45,2-7.98.55-1.19,1.19-2.39,2.84-2.2-.22-1.56.58-2.09,2.01-2,.22-1.22,1.06-1.22,2-1.01,1.46-2.83,4.13-3.57,6.98-3.99-.19-.93-.14-1.74,1.01-1.99-.17-2.09.08-4.08,1.13-5.95.43-.77.97-1.2,1.86-1.06-.18-.93-.09-1.72,1.02-1.99.34-2.32,1.68-3.31,4-3.02.72-2.57,2.76-2.94,4.99-3-.09-.76.23-1.1.99-1-.39-2.71.21-5.43-.68-8.2-.83-2.56.72-4.14,3.69-4.79-.1-.77.23-1.1.99-1.01-1.1-8.03-1-16.11-.89-24.19.02-1.65-.17-3.29,1.22-4.63,1.22-1.17.81-2.8.84-4.26.07-2.77.29-5.48,1.96-7.84.26-1.04.91-1.7,1.95-1.95,1.35-1.67,3.2-1.13,4.94-1.11.45-1.97-1.19-4.3,1-5.98-.05-.72.22-1.13,1-1.02-.1-.76.24-1.1,1-1,.97-3.05-1.83-5.15-2.01-7.91Z"/>
      <path class="cls-2" d="m350.29,37.69s0,0,0,0c0,0,.01,0,.02,0h-.02Z"/>
      <path class="cls-2" d="m98.37,419.55s-.02,0-.03,0c0,.01,0,.02,0,.03l.03-.02Z"/>
      <path class="cls-2" d="m88.45,361.68s0,0,0,0c0,0,.01-.01.02-.02l-.02.03Z"/>
      <path class="cls-2" d="m90.45,414.57s0,0,0-.01c0,0-.02,0-.03,0l.03.02Z"/>
      <path class="cls-2" d="m99.37,418.55s-.02,0-.03,0c0,0,0,.02,0,.03l.03-.03Z"/>
      <path class="cls-2" d="m74.38,372.55s-.01,0-.02,0c0,0,0,.02-.01.03l.03-.02Z"/>
      <path class="cls-2" d="m71.39,373.56s-.01,0-.02,0c0,0,0,.01-.01.02l.03-.03Z"/>
      <polygon class="cls-2" points="204.44 562.53 204.44 562.52 204.43 562.51 204.44 562.53"/>
      <path class="cls-2" d="m221.34,541.53s-.01,0-.02,0c0,0,0,.01,0,.02l.02-.02Z"/>
      <path class="cls-2" d="m201.46,560.53s0,0,0-.01c0,0,0,0-.02,0h.02Z"/>
      <path class="cls-2" d="m202.45,561.52s0-.01,0-.02c0,0-.01,0-.02,0l.02.02Z"/>
      <path class="cls-2" d="m197.46,554.53s0,0,0-.01c0,0,0,0-.01,0v.02Z"/>
      <path class="cls-2" d="m192.43,549.55s0-.01,0-.02c0,0-.01,0-.02,0l.02.02Z"/>
      <path class="cls-2" d="m214.35,559.54s-.02,0-.03.01c0,0,0,.01,0,.02l.02-.03Z"/>
      <path class="cls-2" d="m220.34,542.53s-.01,0-.02,0c0,0,0,.01,0,.02l.02-.02Z"/>
      <path class="cls-2" d="m219.34,543.53s-.01,0-.02,0c0,0,0,.01,0,.02l.02-.02Z"/>
      <path class="cls-2" d="m216.36,546.53s-.02,0-.03,0c0,.01,0,.02,0,.03l.04-.03Z"/>
      <path class="cls-2" d="m136.36,523.53s-.03,0-.04.01c0,0,0,0,0,.01l.04-.03Z"/>
      <path class="cls-2" d="m190.42,548.55s0-.02-.01-.02c0,0,0,0-.01,0l.03.02Z"/>
      <path class="cls-2" d="m213.34,562.53s-.01,0-.02,0c0,0,0,.01,0,.02l.02-.03Z"/>
      <path class="cls-2" d="m173.45,545.52s0-.01,0-.02c0,0,0,0-.01,0l.02.02Z"/>
      <path class="cls-2" d="m148.43,537.55s0-.01,0-.02c0,0-.02,0-.02,0l.03.02Z"/>
      <path class="cls-2" d="m143.46,534.53s0,0,0,0c0,0,0,0-.01,0h.01Z"/>
      <path class="cls-2" d="m132.41,496.55s-.03,0-.05,0c0,.02,0,.04,0,.06l.06-.06Z"/>
      <path class="cls-2" d="m133.41,495.55s-.04,0-.06,0c0,.02,0,.03,0,.05l.06-.06Z"/>
      <path class="cls-2" d="m146.43,536.55s0-.01,0-.02c0,0-.01,0-.02,0l.03.02Z"/>
      <path class="cls-2" d="m171.45,544.52s0-.01,0-.02c0,0-.01,0-.02,0l.02.02Z"/>
      <path class="cls-2" d="m166.43,538.56s0-.01,0-.02c0,0,0,0-.01,0l.02.02Z"/>
      <path class="cls-2" d="m170.45,543.52s0,0,0,0c0,0,0,0-.01,0h.01Z"/>
      <path class="cls-2" d="m168.43,540.58s0-.02,0-.03c0,0-.02,0-.03,0l.03.03Z"/>
      <path class="cls-2" d="m167.43,539.56s0-.01,0-.02c0,0-.01,0-.02,0l.03.02Z"/>
    </g>
  </g>
  <g id="Gardasee">
    <g>
      <path class="cls-3" d="m29.65,53.55c-3.1,1.78-6.94,2.68-11.54,2.68-5.1,0-9.12-1.41-12.06-4.23-2.94-2.82-4.41-6.71-4.41-11.66s1.61-9.04,4.82-12.18,7.49-4.71,12.83-4.71c3.36,0,6.32.46,8.89,1.39v6.7c-2.45-1.42-5.44-2.12-8.98-2.12-2.96,0-5.38.96-7.24,2.89-1.86,1.92-2.8,4.49-2.8,7.71s.84,5.78,2.51,7.56c1.67,1.78,3.93,2.68,6.78,2.68,1.71,0,3.07-.24,4.07-.73v-6.19h-6.35v-5.71h13.49v15.94Z"/>
      <path class="cls-3" d="m53.98,55.68h-6.61v-3.25h-.09c-1.52,2.54-3.77,3.8-6.74,3.8-2.2,0-3.93-.62-5.19-1.87-1.26-1.25-1.89-2.91-1.89-4.99,0-4.39,2.6-6.93,7.81-7.61l6.15-.82c0-2.48-1.34-3.72-4.02-3.72s-5.26.8-7.7,2.41v-5.26c.97-.5,2.3-.94,3.99-1.33s3.22-.58,4.61-.58c6.46,0,9.69,3.22,9.69,9.66v13.53Zm-6.57-9.2v-1.53l-4.11.53c-2.27.29-3.41,1.32-3.41,3.07,0,.8.28,1.45.83,1.96.55.51,1.3.76,2.24.76,1.31,0,2.38-.45,3.21-1.36.83-.91,1.24-2.05,1.24-3.44Z"/>
      <path class="cls-3" d="m74.28,39.33c-.84-.46-1.82-.69-2.94-.69-1.52,0-2.71.56-3.56,1.67-.85,1.11-1.28,2.63-1.28,4.54v10.81h-6.99v-22.64h6.99v4.2h.09c1.11-3.07,3.1-4.6,5.97-4.6.74,0,1.31.09,1.72.27v6.44Z"/>
      <path class="cls-3" d="m99.51,55.68h-6.99v-3.12h-.09c-1.59,2.45-3.93,3.67-7.01,3.67-2.83,0-5.11-1-6.83-3-1.73-2-2.59-4.79-2.59-8.37s.95-6.74,2.85-9c1.9-2.26,4.39-3.38,7.47-3.38,2.92,0,4.95,1.05,6.1,3.14h.09v-13.47h6.99v33.52Zm-6.85-11.01v-1.7c0-1.47-.43-2.7-1.28-3.67-.85-.97-1.97-1.46-3.34-1.46-1.55,0-2.76.61-3.63,1.82-.87,1.22-1.3,2.89-1.3,5.01,0,1.99.42,3.52,1.26,4.6.84,1.08,2,1.61,3.49,1.61s2.57-.57,3.46-1.7c.89-1.13,1.34-2.64,1.34-4.51Z"/>
      <path class="cls-3" d="m124.23,55.68h-6.61v-3.25h-.09c-1.52,2.54-3.77,3.8-6.74,3.8-2.2,0-3.93-.62-5.19-1.87-1.26-1.25-1.89-2.91-1.89-4.99,0-4.39,2.6-6.93,7.81-7.61l6.15-.82c0-2.48-1.34-3.72-4.02-3.72s-5.26.8-7.7,2.41v-5.26c.97-.5,2.3-.94,3.99-1.33s3.22-.58,4.61-.58c6.46,0,9.69,3.22,9.69,9.66v13.53Zm-6.57-9.2v-1.53l-4.11.53c-2.27.29-3.41,1.32-3.41,3.07,0,.8.28,1.45.83,1.96.55.51,1.3.76,2.24.76,1.31,0,2.38-.45,3.21-1.36.83-.91,1.24-2.05,1.24-3.44Z"/>
      <path class="cls-3" d="m128.28,55.08v-5.66c1.15.69,2.3,1.21,3.44,1.55,1.14.34,2.22.51,3.24.51,1.24,0,2.21-.17,2.93-.51.71-.34,1.07-.85,1.07-1.55,0-.44-.16-.81-.49-1.11s-.74-.55-1.25-.77c-.51-.22-1.06-.42-1.67-.6s-1.19-.38-1.75-.6c-.9-.34-1.69-.7-2.38-1.09s-1.26-.84-1.73-1.36c-.46-.52-.82-1.11-1.06-1.79-.24-.68-.36-1.48-.36-2.41,0-1.27.28-2.36.83-3.27.55-.91,1.29-1.66,2.21-2.24.92-.58,1.98-1.01,3.16-1.28,1.19-.27,2.42-.41,3.7-.41,1,0,2.02.08,3.05.23,1.03.15,2.05.38,3.05.67v5.4c-.88-.52-1.83-.9-2.84-1.16-1.01-.26-2-.39-2.97-.39-.46,0-.89.04-1.29.12-.41.08-.76.2-1.07.35s-.55.35-.73.6c-.18.24-.27.52-.27.83,0,.41.13.77.4,1.06.27.29.61.55,1.04.76.43.21.9.41,1.43.57.52.17,1.04.34,1.56.52.93.32,1.77.68,2.52,1.06.75.38,1.4.83,1.93,1.35s.95,1.12,1.24,1.81c.29.69.43,1.52.43,2.48,0,1.34-.29,2.49-.87,3.44-.58.95-1.36,1.73-2.32,2.32-.97.6-2.08,1.03-3.34,1.3-1.26.27-2.57.41-3.93.41-2.49,0-4.8-.38-6.92-1.15Z"/>
      <path class="cls-3" d="m170.03,46.34h-14.77c.24,3.29,2.31,4.93,6.21,4.93,2.49,0,4.68-.59,6.57-1.77v5.04c-2.09,1.12-4.81,1.68-8.16,1.68-3.66,0-6.49-1.01-8.51-3.04-2.02-2.03-3.03-4.85-3.03-8.48s1.09-6.74,3.27-8.93c2.18-2.2,4.87-3.29,8.05-3.29s5.86.98,7.66,2.94c1.81,1.96,2.71,4.62,2.71,7.98v2.94Zm-6.48-4.29c0-3.24-1.31-4.86-3.94-4.86-1.12,0-2.09.46-2.91,1.39-.82.93-1.32,2.09-1.49,3.47h8.34Z"/>
      <path class="cls-3" d="m194.53,46.34h-14.77c.24,3.29,2.31,4.93,6.21,4.93,2.49,0,4.68-.59,6.57-1.77v5.04c-2.09,1.12-4.81,1.68-8.16,1.68-3.66,0-6.49-1.01-8.51-3.04-2.02-2.03-3.03-4.85-3.03-8.48s1.09-6.74,3.27-8.93c2.18-2.2,4.87-3.29,8.05-3.29s5.86.98,7.66,2.94c1.81,1.96,2.71,4.62,2.71,7.98v2.94Zm-6.48-4.29c0-3.24-1.31-4.86-3.94-4.86-1.12,0-2.09.46-2.91,1.39-.82.93-1.32,2.09-1.49,3.47h8.34Z"/>
    </g>
  </g>
  <g id="Staedte">
    <g>
      <g>
        <path class="cls-5" d="m350.44,10.3h-1.81l-1.09-1.8c-.08-.14-.16-.26-.23-.37s-.15-.2-.23-.28c-.08-.08-.16-.14-.24-.18-.08-.04-.17-.06-.27-.06h-.42v2.68h-1.58V3.29h2.5c1.7,0,2.55.63,2.55,1.9,0,.24-.04.47-.11.68s-.18.39-.32.56-.3.31-.5.43c-.19.12-.41.21-.65.28v.02c.1.03.21.09.3.16s.19.16.28.26.18.2.26.31c.08.11.16.22.23.33l1.32,2.07Zm-4.3-5.82v1.95h.68c.34,0,.61-.1.82-.29.21-.2.31-.44.31-.74,0-.61-.37-.92-1.1-.92h-.71Z"/>
        <path class="cls-5" d="m351.73,4.5c-.26,0-.47-.08-.64-.23s-.25-.34-.25-.57.08-.42.25-.57.38-.22.64-.22.48.07.64.22c.17.15.25.34.25.57s-.08.43-.25.58c-.16.15-.38.22-.64.22Zm.76,5.79h-1.54v-5h1.54v5Z"/>
        <path class="cls-5" d="m358.55,5.3l-1.86,5h-1.76l-1.77-5h1.65l.87,3.08c.1.35.15.64.17.89h.02c.02-.23.08-.52.18-.86l.89-3.11h1.61Z"/>
        <path class="cls-5" d="m363.22,10.3h-1.46v-.72h-.02c-.33.56-.83.84-1.49.84-.49,0-.87-.14-1.15-.41-.28-.27-.42-.64-.42-1.1,0-.97.57-1.53,1.72-1.68l1.36-.18c0-.55-.3-.82-.89-.82s-1.16.18-1.7.53v-1.16c.21-.11.51-.21.88-.29.37-.08.71-.13,1.02-.13,1.43,0,2.14.71,2.14,2.13v2.99Zm-1.45-2.03v-.34l-.91.12c-.5.06-.75.29-.75.68,0,.18.06.32.18.43.12.11.29.17.5.17.29,0,.53-.1.71-.3s.27-.45.27-.76Z"/>
      </g>
      <g>
        <path class="cls-5" d="m363.39,49.84h-2v5.72h-1.58v-5.72h-1.99v-1.28h5.57v1.28Z"/>
        <path class="cls-5" d="m365.67,55.68c-.83,0-1.49-.23-1.97-.7-.48-.47-.71-1.1-.71-1.9s.25-1.47.74-1.94,1.16-.7,2.01-.7,1.48.23,1.95.7.71,1.08.71,1.85c0,.83-.24,1.49-.73,1.97-.49.48-1.15.72-2,.72Zm.04-4.06c-.36,0-.65.13-.85.38s-.3.61-.3,1.06c0,.96.39,1.44,1.16,1.44s1.11-.49,1.11-1.48c0-.93-.37-1.4-1.12-1.4Zm1.66-3.43l-1.53,1.58h-1.11l1.27-1.58h1.37Z"/>
        <path class="cls-5" d="m372.65,51.95c-.19-.1-.4-.15-.65-.15-.33,0-.6.12-.79.37s-.28.58-.28,1v2.39h-1.54v-5h1.54v.93h.02c.24-.68.68-1.02,1.32-1.02.16,0,.29.02.38.06v1.42Z"/>
        <path class="cls-5" d="m374.93,54.97h-.02v.58h-1.54v-7.4h1.54v3.15h.02c.38-.58.92-.87,1.63-.87.64,0,1.14.22,1.49.66s.52,1.05.52,1.82c0,.83-.2,1.5-.61,2.01s-.95.76-1.63.76c-.62,0-1.08-.23-1.4-.7Zm-.04-2.11v.51c0,.32.09.59.28.8s.42.32.71.32c.35,0,.62-.14.82-.41.19-.27.29-.66.29-1.15,0-.41-.09-.74-.27-.97-.18-.23-.43-.35-.76-.35-.31,0-.57.12-.77.35-.2.23-.3.53-.3.9Z"/>
        <path class="cls-5" d="m381.96,55.68c-.83,0-1.49-.23-1.97-.7-.48-.47-.71-1.1-.71-1.9s.25-1.47.74-1.94,1.16-.7,2.01-.7,1.48.23,1.95.7.71,1.08.71,1.85c0,.83-.24,1.49-.73,1.97-.49.48-1.15.72-2,.72Zm.04-4.06c-.36,0-.65.13-.85.38s-.3.61-.3,1.06c0,.96.39,1.44,1.16,1.44s1.11-.49,1.11-1.48c0-.93-.37-1.4-1.12-1.4Z"/>
        <path class="cls-5" d="m387.23,55.55h-1.54v-7.4h1.54v7.4Z"/>
        <path class="cls-5" d="m393.02,53.49h-3.26c.05.73.51,1.09,1.37,1.09.55,0,1.03-.13,1.45-.39v1.11c-.46.25-1.06.37-1.8.37-.81,0-1.43-.22-1.88-.67s-.67-1.07-.67-1.87.24-1.49.72-1.97,1.07-.73,1.78-.73,1.29.22,1.69.65c.4.43.6,1.02.6,1.76v.65Zm-1.43-.95c0-.72-.29-1.07-.87-1.07-.25,0-.46.1-.64.31-.18.21-.29.46-.33.77h1.84Z"/>
      </g>
      <g>
        <path class="cls-5" d="m249.75,101.33h-4.17v-7h1.58v5.72h2.59v1.28Z"/>
        <path class="cls-5" d="m251.33,95.54c-.26,0-.47-.08-.64-.23s-.25-.34-.25-.57.08-.42.25-.57.38-.22.64-.22.48.07.64.22c.17.15.25.34.25.57s-.08.43-.25.58c-.16.15-.38.22-.64.22Zm.76,5.79h-1.54v-5h1.54v5Z"/>
        <path class="cls-5" d="m261.33,101.33h-1.54v-2.85c0-.73-.27-1.09-.8-1.09-.25,0-.46.11-.62.33s-.24.49-.24.82v2.8h-1.54v-2.88c0-.71-.26-1.06-.79-1.06-.26,0-.47.1-.63.31-.16.21-.24.49-.24.85v2.78h-1.54v-5h1.54v.78h.02c.16-.27.38-.48.67-.65.29-.17.6-.25.95-.25.71,0,1.19.31,1.45.93.38-.62.94-.93,1.68-.93,1.09,0,1.63.67,1.63,2.01v3.11Z"/>
        <path class="cls-5" d="m264.93,101.45c-.83,0-1.49-.23-1.97-.7-.48-.47-.71-1.1-.71-1.9s.25-1.47.74-1.94,1.16-.7,2.01-.7,1.48.23,1.95.7.71,1.08.71,1.85c0,.83-.24,1.49-.73,1.97-.49.48-1.15.72-2,.72Zm.04-4.06c-.36,0-.65.13-.85.38s-.3.61-.3,1.06c0,.96.39,1.44,1.16,1.44s1.11-.49,1.11-1.48c0-.93-.37-1.4-1.12-1.4Z"/>
        <path class="cls-5" d="m273.49,101.33h-1.54v-2.78c0-.77-.28-1.16-.83-1.16-.27,0-.49.1-.66.31s-.26.47-.26.78v2.85h-1.54v-5h1.54v.79h.02c.37-.61.9-.91,1.61-.91,1.11,0,1.66.69,1.66,2.06v3.06Z"/>
        <path class="cls-5" d="m279.2,99.27h-3.26c.05.73.51,1.09,1.37,1.09.55,0,1.03-.13,1.45-.39v1.11c-.46.25-1.06.37-1.8.37-.81,0-1.43-.22-1.88-.67s-.67-1.07-.67-1.87.24-1.49.72-1.97,1.07-.73,1.78-.73,1.29.22,1.69.65c.4.43.6,1.02.6,1.76v.65Zm-1.43-.95c0-.72-.29-1.07-.87-1.07-.25,0-.46.1-.64.31-.18.21-.29.46-.33.77h1.84Z"/>
      </g>
      <g>
        <path class="cls-5" d="m320.11,161.27h-1.56v-4.19c0-.45.02-.95.06-1.5h-.04c-.08.43-.15.74-.22.93l-1.64,4.76h-1.29l-1.67-4.71c-.05-.13-.12-.45-.22-.98h-.04c.04.69.06,1.3.06,1.82v3.87h-1.42v-7h2.31l1.43,4.15c.11.33.2.67.25,1h.03c.09-.39.18-.72.28-1.01l1.43-4.14h2.25v7Z"/>
        <path class="cls-5" d="m325.71,161.27h-1.46v-.72h-.02c-.33.56-.83.84-1.49.84-.49,0-.87-.14-1.15-.41-.28-.27-.42-.64-.42-1.1,0-.97.57-1.53,1.72-1.68l1.36-.18c0-.55-.3-.82-.89-.82s-1.16.18-1.7.53v-1.16c.21-.11.51-.21.88-.29.37-.08.71-.13,1.02-.13,1.43,0,2.14.71,2.14,2.13v2.99Zm-1.45-2.03v-.34l-.91.12c-.5.06-.75.29-.75.68,0,.18.06.32.18.43.12.11.29.17.5.17.29,0,.53-.1.71-.3s.27-.45.27-.76Z"/>
        <path class="cls-5" d="m328.48,161.27h-1.54v-7.4h1.54v7.4Z"/>
        <path class="cls-5" d="m333.56,161.09c-.35.2-.85.3-1.51.3-.77,0-1.39-.23-1.87-.7s-.71-1.07-.71-1.8c0-.85.25-1.52.76-2.01.51-.49,1.19-.73,2.04-.73.59,0,1.02.08,1.28.23v1.31c-.32-.24-.68-.36-1.08-.36-.44,0-.79.13-1.05.39-.26.26-.39.62-.39,1.07s.12.79.37,1.04.59.38,1.02.38c.38,0,.76-.12,1.13-.36v1.24Z"/>
        <path class="cls-5" d="m339.07,159.21h-3.26c.05.73.51,1.09,1.37,1.09.55,0,1.03-.13,1.45-.39v1.11c-.46.25-1.06.37-1.8.37-.81,0-1.43-.22-1.88-.67s-.67-1.07-.67-1.87.24-1.49.72-1.97,1.07-.73,1.78-.73,1.29.22,1.69.65c.4.43.6,1.02.6,1.76v.65Zm-.64-5.31l-1.53,1.58h-1.11l1.27-1.58h1.37Zm-.79,4.36c0-.72-.29-1.07-.87-1.07-.25,0-.46.1-.64.31-.18.21-.29.46-.33.77h1.84Z"/>
        <path class="cls-5" d="m339.66,161.13v-1.25c.25.15.51.27.76.34.25.07.49.11.71.11.27,0,.49-.04.65-.11.16-.07.24-.19.24-.34,0-.1-.04-.18-.11-.24s-.16-.12-.28-.17c-.11-.05-.23-.09-.37-.13s-.26-.08-.39-.13c-.2-.07-.37-.16-.53-.24-.15-.09-.28-.19-.38-.3-.1-.11-.18-.25-.23-.4-.05-.15-.08-.33-.08-.53,0-.28.06-.52.18-.72.12-.2.28-.37.49-.5.2-.13.44-.22.7-.28.26-.06.54-.09.82-.09.22,0,.45.02.67.05s.45.08.67.15v1.19c-.2-.11-.4-.2-.63-.26-.22-.06-.44-.09-.66-.09-.1,0-.2,0-.29.03-.09.02-.17.04-.24.08s-.12.08-.16.13-.06.11-.06.18c0,.09.03.17.09.23s.13.12.23.17.2.09.31.13c.12.04.23.08.34.11.21.07.39.15.56.23s.31.18.43.3c.12.11.21.25.27.4.06.15.1.34.1.55,0,.3-.06.55-.19.76-.13.21-.3.38-.51.51-.21.13-.46.23-.74.29-.28.06-.57.09-.87.09-.55,0-1.06-.08-1.53-.25Z"/>
        <path class="cls-5" d="m345.17,155.48c-.26,0-.47-.08-.64-.23s-.25-.34-.25-.57.08-.42.25-.57.38-.22.64-.22.48.07.64.22c.17.15.25.34.25.57s-.08.43-.25.58c-.16.15-.38.22-.64.22Zm.76,5.79h-1.54v-5h1.54v5Z"/>
        <path class="cls-5" d="m352.05,161.27h-1.54v-2.78c0-.77-.28-1.16-.83-1.16-.27,0-.49.1-.66.31s-.26.47-.26.78v2.85h-1.54v-5h1.54v.79h.02c.37-.61.9-.91,1.61-.91,1.11,0,1.66.69,1.66,2.06v3.06Z"/>
        <path class="cls-5" d="m357.77,159.21h-3.26c.05.73.51,1.09,1.37,1.09.55,0,1.03-.13,1.45-.39v1.11c-.46.25-1.06.37-1.8.37-.81,0-1.43-.22-1.88-.67s-.67-1.07-.67-1.87.24-1.49.72-1.97,1.07-.73,1.78-.73,1.29.22,1.69.65c.4.43.6,1.02.6,1.76v.65Zm-1.43-.95c0-.72-.29-1.07-.87-1.07-.25,0-.46.1-.64.31-.18.21-.29.46-.33.77h1.84Z"/>
      </g>
      <g>
        <path class="cls-5" d="m178,204.3c-.68.39-1.53.59-2.55.59-1.13,0-2.01-.31-2.66-.94-.65-.62-.97-1.48-.97-2.58s.35-2,1.06-2.69,1.65-1.04,2.83-1.04c.74,0,1.4.1,1.96.31v1.48c-.54-.31-1.2-.47-1.98-.47-.65,0-1.19.21-1.6.64-.41.42-.62.99-.62,1.7s.18,1.28.55,1.67c.37.39.87.59,1.5.59.38,0,.68-.05.9-.16v-1.37h-1.4v-1.26h2.98v3.52Z"/>
        <path class="cls-5" d="m183.37,204.77h-1.46v-.72h-.02c-.33.56-.83.84-1.49.84-.49,0-.87-.14-1.15-.41-.28-.27-.42-.64-.42-1.1,0-.97.57-1.53,1.72-1.68l1.36-.18c0-.55-.3-.82-.89-.82s-1.16.18-1.7.53v-1.16c.21-.11.51-.21.88-.29.37-.08.71-.13,1.02-.13,1.43,0,2.14.71,2.14,2.13v2.99Zm-1.45-2.03v-.34l-.91.12c-.5.06-.75.29-.75.68,0,.18.06.32.18.43.12.11.29.17.5.17.29,0,.53-.1.71-.3s.27-.45.27-.76Zm.99-5.34l-1.53,1.58h-1.11l1.27-1.58h1.37Z"/>
        <path class="cls-5" d="m187.85,201.16c-.19-.1-.4-.15-.65-.15-.33,0-.6.12-.79.37s-.28.58-.28,1v2.39h-1.54v-5h1.54v.93h.02c.24-.68.68-1.02,1.32-1.02.16,0,.29.02.38.06v1.42Z"/>
        <path class="cls-5" d="m193.42,204.77h-1.54v-.69h-.02c-.35.54-.87.81-1.55.81-.62,0-1.13-.22-1.51-.66s-.57-1.06-.57-1.85.21-1.49.63-1.99.97-.75,1.65-.75c.64,0,1.09.23,1.35.69h.02v-2.97h1.54v7.4Zm-1.51-2.43v-.38c0-.33-.09-.6-.28-.81s-.43-.32-.74-.32c-.34,0-.61.13-.8.4s-.29.64-.29,1.11c0,.44.09.78.28,1.02s.44.36.77.36.57-.13.76-.38c.2-.25.3-.58.3-1Z"/>
        <path class="cls-5" d="m197.11,204.89c-.83,0-1.49-.23-1.97-.7-.48-.47-.71-1.1-.71-1.9s.25-1.47.74-1.94,1.16-.7,2.01-.7,1.48.23,1.95.7.71,1.08.71,1.85c0,.83-.24,1.49-.73,1.97-.49.48-1.15.72-2,.72Zm.04-4.06c-.36,0-.65.13-.85.38s-.3.61-.3,1.06c0,.96.39,1.44,1.16,1.44s1.11-.49,1.11-1.48c0-.93-.37-1.4-1.12-1.4Z"/>
        <path class="cls-5" d="m202.38,204.77h-1.54v-7.4h1.54v7.4Z"/>
        <path class="cls-5" d="m206.06,204.89c-.83,0-1.49-.23-1.97-.7-.48-.47-.71-1.1-.71-1.9s.25-1.47.74-1.94,1.16-.7,2.01-.7,1.48.23,1.95.7.71,1.08.71,1.85c0,.83-.24,1.49-.73,1.97-.49.48-1.15.72-2,.72Zm.04-4.06c-.36,0-.65.13-.85.38s-.3.61-.3,1.06c0,.96.39,1.44,1.16,1.44s1.11-.49,1.11-1.48c0-.93-.37-1.4-1.12-1.4Z"/>
      </g>
      <g>
        <path class="cls-5" d="m288.14,243.66v-7h2.55c.78,0,1.38.14,1.8.43s.63.69.63,1.21c0,.38-.13.71-.38.99-.26.28-.58.48-.98.59v.02c.5.06.9.25,1.19.55.3.31.45.68.45,1.12,0,.64-.23,1.15-.69,1.53s-1.09.56-1.88.56h-2.69Zm1.58-5.84v1.66h.69c.33,0,.58-.08.77-.24.19-.16.28-.38.28-.65,0-.51-.38-.77-1.15-.77h-.59Zm0,2.83v1.85h.85c.36,0,.65-.08.86-.25.21-.17.31-.4.31-.69s-.1-.5-.31-.66c-.2-.16-.49-.24-.85-.24h-.86Z"/>
        <path class="cls-5" d="m297.66,240.05c-.19-.1-.4-.15-.65-.15-.33,0-.6.12-.79.37s-.28.58-.28,1v2.39h-1.54v-5h1.54v.93h.02c.24-.68.68-1.02,1.32-1.02.16,0,.29.02.38.06v1.42Z"/>
        <path class="cls-5" d="m302.83,241.6h-3.26c.05.73.51,1.09,1.37,1.09.55,0,1.03-.13,1.45-.39v1.11c-.46.25-1.06.37-1.8.37-.81,0-1.43-.22-1.88-.67s-.67-1.07-.67-1.87.24-1.49.72-1.97,1.07-.73,1.78-.73,1.29.22,1.69.65c.4.43.6,1.02.6,1.76v.65Zm-1.43-.95c0-.72-.29-1.07-.87-1.07-.25,0-.46.1-.64.31-.18.21-.29.46-.33.77h1.84Z"/>
        <path class="cls-5" d="m308.58,243.66h-1.54v-2.78c0-.77-.28-1.16-.83-1.16-.27,0-.49.1-.66.31s-.26.47-.26.78v2.85h-1.54v-5h1.54v.79h.02c.37-.61.9-.91,1.61-.91,1.11,0,1.66.69,1.66,2.06v3.06Z"/>
        <path class="cls-5" d="m313.76,243.66h-4.49v-.64l2.51-3.22h-2.26v-1.14h4.22v.76l-2.38,3.1h2.4v1.14Z"/>
        <path class="cls-5" d="m316.97,243.78c-.83,0-1.49-.23-1.97-.7-.48-.47-.71-1.1-.71-1.9s.25-1.47.74-1.94,1.16-.7,2.01-.7,1.48.23,1.95.7.71,1.08.71,1.85c0,.83-.24,1.49-.73,1.97-.49.48-1.15.72-2,.72Zm.04-4.06c-.36,0-.65.13-.85.38s-.3.61-.3,1.06c0,.96.39,1.44,1.16,1.44s1.11-.49,1.11-1.48c0-.93-.37-1.4-1.12-1.4Z"/>
        <path class="cls-5" d="m325.53,243.66h-1.54v-2.78c0-.77-.28-1.16-.83-1.16-.27,0-.49.1-.66.31s-.26.47-.26.78v2.85h-1.54v-5h1.54v.79h.02c.37-.61.9-.91,1.61-.91,1.11,0,1.66.69,1.66,2.06v3.06Z"/>
        <path class="cls-5" d="m331.24,241.6h-3.26c.05.73.51,1.09,1.37,1.09.55,0,1.03-.13,1.45-.39v1.11c-.46.25-1.06.37-1.8.37-.81,0-1.43-.22-1.88-.67s-.67-1.07-.67-1.87.24-1.49.72-1.97,1.07-.73,1.78-.73,1.29.22,1.69.65c.4.43.6,1.02.6,1.76v.65Zm-1.43-.95c0-.72-.29-1.07-.87-1.07-.25,0-.46.1-.64.31-.18.21-.29.46-.33.77h1.84Z"/>
      </g>
      <g>
        <path class="cls-5" d="m266.21,297l-2.41,7h-1.79l-2.38-7h1.7l1.46,4.87c.08.26.12.5.14.7h.03c.02-.22.07-.46.15-.72l1.45-4.85h1.65Z"/>
        <path class="cls-5" d="m267.68,298.21c-.26,0-.47-.08-.64-.23-.17-.16-.25-.34-.25-.57s.08-.42.25-.57.38-.22.64-.22.48.07.64.22c.17.15.25.34.25.57s-.08.43-.25.58c-.16.15-.38.22-.64.22Zm.76,5.79h-1.54v-5h1.54v5Z"/>
        <path class="cls-5" d="m271.28,304h-1.54v-7.4h1.54v7.4Z"/>
        <path class="cls-5" d="m274.12,304h-1.54v-7.4h1.54v7.4Z"/>
        <path class="cls-5" d="m279.58,304h-1.46v-.72h-.02c-.33.56-.83.84-1.49.84-.49,0-.87-.14-1.15-.41-.28-.28-.42-.64-.42-1.1,0-.97.57-1.53,1.72-1.68l1.36-.18c0-.55-.3-.82-.89-.82s-1.16.18-1.7.53v-1.16c.21-.11.51-.21.88-.29.37-.08.71-.13,1.02-.13,1.43,0,2.14.71,2.14,2.13v2.99Zm-1.45-2.03v-.34l-.91.12c-.5.07-.75.29-.75.68,0,.18.06.32.18.43.12.11.29.17.5.17.29,0,.53-.1.71-.3s.27-.45.27-.76Z"/>
        <path class="cls-5" d="m285.63,304h-1.54v-2.78c0-.77-.28-1.16-.83-1.16-.27,0-.49.1-.66.31s-.26.47-.26.78v2.85h-1.54v-5h1.54v.79h.02c.37-.61.9-.91,1.61-.91,1.11,0,1.66.69,1.66,2.06v3.06Z"/>
        <path class="cls-5" d="m289.23,304.12c-.83,0-1.49-.23-1.97-.7-.48-.47-.71-1.1-.71-1.9s.25-1.47.74-1.94c.5-.47,1.16-.7,2.01-.7s1.48.23,1.95.7c.47.47.71,1.08.71,1.85,0,.83-.24,1.49-.73,1.97-.49.48-1.15.72-2,.72Zm.04-4.06c-.36,0-.65.13-.85.38-.2.25-.3.61-.3,1.06,0,.96.39,1.44,1.16,1.44s1.11-.49,1.11-1.48c0-.93-.37-1.4-1.12-1.4Z"/>
        <path class="cls-5" d="m297.73,299l-1.86,5h-1.76l-1.77-5h1.65l.87,3.08c.1.35.15.64.17.89h.02c.02-.23.08-.52.18-.86l.89-3.11h1.61Z"/>
        <path class="cls-5" d="m302.39,304h-1.46v-.72h-.02c-.33.56-.83.84-1.49.84-.49,0-.87-.14-1.15-.41-.28-.28-.42-.64-.42-1.1,0-.97.57-1.53,1.72-1.68l1.36-.18c0-.55-.3-.82-.89-.82s-1.16.18-1.7.53v-1.16c.21-.11.51-.21.88-.29.37-.08.71-.13,1.02-.13,1.43,0,2.14.71,2.14,2.13v2.99Zm-1.45-2.03v-.34l-.91.12c-.5.07-.75.29-.75.68,0,.18.06.32.18.43.12.11.29.17.5.17.29,0,.53-.1.71-.3s.27-.45.27-.76Z"/>
      </g>
      <g>
        <path class="cls-5" d="m236.17,402.02c-.68.39-1.53.59-2.55.59-1.13,0-2.01-.31-2.66-.93-.65-.62-.97-1.48-.97-2.58s.35-2,1.06-2.69,1.65-1.04,2.83-1.04c.74,0,1.4.1,1.96.31v1.48c-.54-.31-1.2-.47-1.98-.47-.65,0-1.19.21-1.6.64-.41.42-.62.99-.62,1.7s.18,1.28.55,1.67c.37.39.87.59,1.5.59.38,0,.68-.05.9-.16v-1.37h-1.4v-1.26h2.98v3.52Z"/>
        <path class="cls-5" d="m241.54,402.49h-1.46v-.72h-.02c-.33.56-.83.84-1.49.84-.49,0-.87-.14-1.15-.41-.28-.28-.42-.64-.42-1.1,0-.97.57-1.53,1.72-1.68l1.36-.18c0-.55-.3-.82-.89-.82s-1.16.18-1.7.53v-1.16c.21-.11.51-.21.88-.29.37-.08.71-.13,1.02-.13,1.43,0,2.14.71,2.14,2.13v2.99Zm-1.45-2.03v-.34l-.91.12c-.5.07-.75.29-.75.68,0,.18.06.32.18.43.12.11.29.17.5.17.29,0,.53-.1.71-.3s.27-.45.27-.76Z"/>
        <path class="cls-5" d="m246.03,398.88c-.19-.1-.4-.15-.65-.15-.33,0-.6.12-.79.37-.19.25-.28.58-.28,1v2.39h-1.54v-5h1.54v.93h.02c.24-.68.68-1.02,1.32-1.02.16,0,.29.02.38.06v1.42Z"/>
        <path class="cls-5" d="m251.6,402.49h-1.54v-.69h-.02c-.35.54-.87.81-1.55.81-.62,0-1.13-.22-1.51-.66-.38-.44-.57-1.06-.57-1.85s.21-1.49.63-1.99.97-.75,1.65-.75c.64,0,1.09.23,1.35.69h.02v-2.97h1.54v7.4Zm-1.51-2.43v-.38c0-.33-.09-.6-.28-.81s-.43-.32-.74-.32c-.34,0-.61.13-.8.4s-.29.64-.29,1.11c0,.44.09.78.28,1.02.19.24.44.36.77.36s.57-.12.76-.38c.2-.25.3-.58.3-1Z"/>
        <path class="cls-5" d="m257.06,402.49h-1.46v-.72h-.02c-.33.56-.83.84-1.49.84-.49,0-.87-.14-1.15-.41-.28-.28-.42-.64-.42-1.1,0-.97.57-1.53,1.72-1.68l1.36-.18c0-.55-.3-.82-.89-.82s-1.16.18-1.7.53v-1.16c.21-.11.51-.21.88-.29.37-.08.71-.13,1.02-.13,1.43,0,2.14.71,2.14,2.13v2.99Zm-1.45-2.03v-.34l-.91.12c-.5.07-.75.29-.75.68,0,.18.06.32.18.43.12.11.29.17.5.17.29,0,.53-.1.71-.3s.27-.45.27-.76Z"/>
      </g>
      <g>
        <path class="cls-5" d="m241.53,434.42v-7h2.55c.78,0,1.38.14,1.8.43.42.29.63.69.63,1.21,0,.38-.13.71-.38.99-.26.28-.58.48-.98.59v.02c.5.06.9.25,1.19.55.3.31.45.68.45,1.12,0,.64-.23,1.15-.69,1.53s-1.09.56-1.88.56h-2.69Zm1.58-5.84v1.66h.69c.33,0,.58-.08.77-.24.19-.16.28-.38.28-.65,0-.51-.38-.77-1.15-.77h-.59Zm0,2.83v1.85h.85c.36,0,.65-.08.86-.25.21-.17.31-.4.31-.69s-.1-.5-.31-.66c-.2-.16-.49-.24-.85-.24h-.86Z"/>
        <path class="cls-5" d="m251.95,434.42h-1.46v-.72h-.02c-.33.56-.83.84-1.49.84-.49,0-.87-.14-1.15-.41-.28-.27-.42-.64-.42-1.1,0-.97.57-1.53,1.72-1.68l1.36-.18c0-.55-.3-.82-.89-.82s-1.16.18-1.7.53v-1.16c.21-.11.51-.21.88-.29.37-.08.71-.13,1.02-.13,1.43,0,2.14.71,2.14,2.13v2.99Zm-1.45-2.03v-.34l-.91.12c-.5.06-.75.29-.75.68,0,.18.06.32.18.43.12.11.29.17.5.17.29,0,.53-.1.71-.3s.27-.45.27-.76Z"/>
        <path class="cls-5" d="m256.44,430.81c-.19-.1-.4-.15-.65-.15-.33,0-.6.12-.79.37-.19.25-.28.58-.28,1v2.39h-1.54v-5h1.54v.93h.02c.24-.68.68-1.02,1.32-1.02.16,0,.29.02.38.06v1.42Z"/>
        <path class="cls-5" d="m262.01,434.42h-1.54v-.69h-.02c-.35.54-.87.81-1.55.81-.62,0-1.13-.22-1.51-.66-.38-.44-.57-1.06-.57-1.85s.21-1.49.63-1.99.97-.75,1.65-.75c.64,0,1.09.23,1.35.69h.02v-2.97h1.54v7.4Zm-1.51-2.43v-.38c0-.33-.09-.6-.28-.81s-.43-.32-.74-.32c-.34,0-.61.13-.8.4s-.29.64-.29,1.11c0,.44.09.78.28,1.02.19.24.44.36.77.36s.57-.13.76-.38c.2-.25.3-.58.3-1Z"/>
        <path class="cls-5" d="m265.69,434.55c-.83,0-1.49-.23-1.97-.7-.48-.47-.71-1.1-.71-1.9s.25-1.47.74-1.94c.5-.47,1.16-.7,2.01-.7s1.48.23,1.95.7c.47.47.71,1.08.71,1.85,0,.83-.24,1.49-.73,1.97-.49.48-1.15.72-2,.72Zm.04-4.06c-.36,0-.65.12-.85.38-.2.25-.3.61-.3,1.06,0,.96.39,1.44,1.16,1.44s1.11-.49,1.11-1.48c0-.93-.37-1.4-1.12-1.4Z"/>
        <path class="cls-5" d="m270.96,434.42h-1.54v-7.4h1.54v7.4Z"/>
        <path class="cls-5" d="m273.04,428.63c-.26,0-.47-.08-.64-.23-.17-.15-.25-.34-.25-.57s.08-.42.25-.57.38-.22.64-.22.48.07.64.22c.17.15.25.33.25.57s-.08.43-.25.58c-.16.15-.38.22-.64.22Zm.76,5.79h-1.54v-5h1.54v5Z"/>
        <path class="cls-5" d="m279.93,434.42h-1.54v-2.78c0-.78-.28-1.16-.83-1.16-.27,0-.49.1-.66.31s-.26.46-.26.78v2.85h-1.54v-5h1.54v.79h.02c.37-.61.9-.91,1.61-.91,1.11,0,1.66.69,1.66,2.06v3.06Z"/>
        <path class="cls-5" d="m283.54,434.55c-.83,0-1.49-.23-1.97-.7-.48-.47-.71-1.1-.71-1.9s.25-1.47.74-1.94c.5-.47,1.16-.7,2.01-.7s1.48.23,1.95.7c.47.47.71,1.08.71,1.85,0,.83-.24,1.49-.73,1.97-.49.48-1.15.72-2,.72Zm.04-4.06c-.36,0-.65.12-.85.38-.2.25-.3.61-.3,1.06,0,.96.39,1.44,1.16,1.44s1.11-.49,1.11-1.48c0-.93-.37-1.4-1.12-1.4Z"/>
      </g>
      <g>
        <path class="cls-5" d="m259.63,485.68h-4.17v-7h1.58v5.72h2.59v1.28Z"/>
        <path class="cls-5" d="m264.58,485.68h-1.46v-.72h-.02c-.33.56-.83.84-1.49.84-.49,0-.87-.14-1.15-.41-.28-.27-.42-.64-.42-1.1,0-.97.57-1.53,1.72-1.68l1.36-.18c0-.55-.3-.82-.89-.82s-1.16.18-1.7.53v-1.16c.21-.11.51-.21.88-.29.37-.08.71-.13,1.02-.13,1.43,0,2.14.71,2.14,2.13v2.99Zm-1.45-2.03v-.34l-.91.12c-.5.06-.75.29-.75.68,0,.18.06.32.18.43.12.11.29.17.5.17.29,0,.53-.1.71-.3s.27-.45.27-.76Z"/>
        <path class="cls-5" d="m269.76,485.68h-4.49v-.64l2.51-3.22h-2.26v-1.14h4.22v.76l-2.38,3.1h2.4v1.14Z"/>
        <path class="cls-5" d="m271.37,479.89c-.26,0-.47-.08-.64-.23-.17-.15-.25-.34-.25-.57s.08-.42.25-.57.38-.22.64-.22.48.07.64.22c.17.15.25.33.25.57s-.08.43-.25.58c-.16.15-.38.22-.64.22Zm.76,5.79h-1.54v-5h1.54v5Z"/>
        <path class="cls-5" d="m273.1,485.55v-1.25c.25.15.51.27.76.34.25.07.49.11.71.11.27,0,.49-.04.65-.11.16-.08.24-.19.24-.34,0-.1-.04-.18-.11-.24-.07-.07-.16-.12-.28-.17-.11-.05-.23-.09-.37-.13s-.26-.08-.39-.13c-.2-.08-.37-.16-.53-.24-.15-.09-.28-.19-.38-.3-.1-.11-.18-.25-.23-.4-.05-.15-.08-.33-.08-.53,0-.28.06-.52.18-.72.12-.2.28-.37.49-.5.2-.13.44-.22.7-.28.26-.06.54-.09.82-.09.22,0,.45.02.67.05s.45.08.67.15v1.19c-.2-.11-.4-.2-.63-.26-.22-.06-.44-.08-.66-.08-.1,0-.2,0-.29.03-.09.02-.17.04-.24.08s-.12.08-.16.13-.06.12-.06.18c0,.09.03.17.09.23.06.06.13.12.23.17.09.05.2.09.31.13.12.04.23.08.34.12.21.07.39.15.56.23.17.08.31.18.43.3.12.11.21.25.27.4.06.15.1.33.1.55,0,.3-.06.55-.19.76-.13.21-.3.38-.51.51-.21.13-.46.23-.74.29-.28.06-.57.09-.87.09-.55,0-1.06-.08-1.53-.25Z"/>
        <path class="cls-5" d="m282.32,483.62h-3.26c.05.73.51,1.09,1.37,1.09.55,0,1.03-.13,1.45-.39v1.11c-.46.25-1.06.37-1.8.37-.81,0-1.43-.22-1.88-.67-.45-.45-.67-1.07-.67-1.87s.24-1.49.72-1.97c.48-.49,1.07-.73,1.78-.73s1.29.22,1.69.65c.4.43.6,1.02.6,1.76v.65Zm-1.43-.95c0-.72-.29-1.07-.87-1.07-.25,0-.46.1-.64.31-.18.21-.29.46-.33.77h1.84Z"/>
      </g>
      <g>
        <path class="cls-5" d="m47.22,551.46v-7h2.48c2.49,0,3.73,1.14,3.73,3.41,0,1.09-.34,1.96-1.02,2.61-.68.65-1.58.98-2.71.98h-2.48Zm1.58-5.72v4.44h.78c.68,0,1.22-.21,1.61-.62.39-.41.58-.97.58-1.67,0-.67-.19-1.19-.58-1.58-.39-.38-.93-.57-1.62-.57h-.77Z"/>
        <path class="cls-5" d="m58.93,549.4h-3.26c.05.73.51,1.09,1.37,1.09.55,0,1.03-.13,1.45-.39v1.11c-.46.25-1.06.37-1.8.37-.81,0-1.43-.22-1.88-.67-.45-.45-.67-1.07-.67-1.87s.24-1.49.72-1.97c.48-.49,1.07-.73,1.78-.73s1.29.22,1.69.65c.4.43.6,1.02.6,1.76v.65Zm-1.43-.95c0-.72-.29-1.07-.87-1.07-.25,0-.46.1-.64.31-.18.21-.29.46-.33.77h1.84Z"/>
        <path class="cls-5" d="m59.52,551.32v-1.25c.25.15.51.27.76.34.25.07.49.11.71.11.27,0,.49-.04.65-.11.16-.08.24-.19.24-.34,0-.1-.04-.18-.11-.24-.07-.07-.16-.12-.28-.17-.11-.05-.23-.09-.37-.13s-.26-.08-.39-.13c-.2-.08-.37-.16-.53-.24-.15-.09-.28-.19-.38-.3-.1-.11-.18-.25-.23-.4-.05-.15-.08-.33-.08-.53,0-.28.06-.52.18-.72.12-.2.28-.37.49-.5.2-.13.44-.22.7-.28.26-.06.54-.09.82-.09.22,0,.45.02.67.05s.45.08.67.15v1.19c-.2-.11-.4-.2-.63-.26-.22-.06-.44-.08-.66-.08-.1,0-.2,0-.29.03-.09.02-.17.04-.24.08s-.12.08-.16.13-.06.12-.06.18c0,.09.03.17.09.23.06.06.13.12.23.17.09.05.2.09.31.13.12.04.23.08.34.12.21.07.39.15.56.23.17.08.31.18.43.3.12.11.21.25.27.4.06.15.1.33.1.55,0,.3-.06.55-.19.76-.13.21-.3.38-.51.51-.21.13-.46.23-.74.29-.28.06-.57.09-.87.09-.55,0-1.06-.08-1.53-.25Z"/>
        <path class="cls-5" d="m68.74,549.4h-3.26c.05.73.51,1.09,1.37,1.09.55,0,1.03-.13,1.45-.39v1.11c-.46.25-1.06.37-1.8.37-.81,0-1.43-.22-1.88-.67-.45-.45-.67-1.07-.67-1.87s.24-1.49.72-1.97c.48-.49,1.07-.73,1.78-.73s1.29.22,1.69.65c.4.43.6,1.02.6,1.76v.65Zm-1.43-.95c0-.72-.29-1.07-.87-1.07-.25,0-.46.1-.64.31-.18.21-.29.46-.33.77h1.84Z"/>
        <path class="cls-5" d="m74.49,551.46h-1.54v-2.78c0-.78-.28-1.16-.83-1.16-.27,0-.49.1-.66.31s-.26.46-.26.78v2.85h-1.54v-5h1.54v.79h.02c.37-.61.9-.91,1.61-.91,1.11,0,1.66.69,1.66,2.06v3.06Z"/>
        <path class="cls-5" d="m79.67,551.46h-4.49v-.64l2.51-3.22h-2.26v-1.14h4.22v.76l-2.38,3.1h2.4v1.14Z"/>
        <path class="cls-5" d="m84.66,551.46h-1.46v-.72h-.02c-.33.56-.83.84-1.49.84-.49,0-.87-.14-1.15-.41-.28-.27-.42-.64-.42-1.1,0-.97.57-1.53,1.72-1.68l1.36-.18c0-.55-.3-.82-.89-.82s-1.16.18-1.7.53v-1.16c.21-.11.51-.21.88-.29.37-.08.71-.13,1.02-.13,1.43,0,2.14.71,2.14,2.13v2.99Zm-1.45-2.03v-.34l-.91.12c-.5.06-.75.29-.75.68,0,.18.06.32.18.43.12.11.29.17.5.17.29,0,.53-.1.71-.3s.27-.45.27-.76Z"/>
        <path class="cls-5" d="m90.71,551.46h-1.54v-2.78c0-.78-.28-1.16-.83-1.16-.27,0-.49.1-.66.31s-.26.46-.26.78v2.85h-1.54v-5h1.54v.79h.02c.37-.61.9-.91,1.61-.91,1.11,0,1.66.69,1.66,2.06v3.06Z"/>
        <path class="cls-5" d="m94.31,551.58c-.83,0-1.49-.23-1.97-.7-.48-.47-.71-1.1-.71-1.9s.25-1.47.74-1.94c.5-.47,1.16-.7,2.01-.7s1.48.23,1.95.7c.47.47.71,1.08.71,1.85,0,.83-.24,1.49-.73,1.97-.49.48-1.15.72-2,.72Zm.04-4.06c-.36,0-.65.12-.85.38-.2.25-.3.61-.3,1.06,0,.96.39,1.44,1.16,1.44s1.11-.49,1.11-1.48c0-.93-.37-1.4-1.12-1.4Z"/>
      </g>
      <g>
        <path class="cls-5" d="m145.05,503.93v-1.56c.28.24.59.42.92.54.33.12.67.18,1.01.18.2,0,.37-.02.52-.05.15-.04.27-.08.37-.15.1-.06.17-.14.22-.22.05-.09.07-.18.07-.28,0-.14-.04-.26-.12-.37s-.18-.21-.32-.3c-.13-.09-.29-.18-.48-.26-.19-.08-.39-.17-.6-.26-.55-.23-.95-.51-1.22-.83-.27-.33-.4-.73-.4-1.19,0-.36.07-.68.22-.94.15-.26.35-.48.6-.65.25-.17.54-.29.88-.37.33-.08.68-.12,1.05-.12s.69.02.97.07c.28.04.54.11.78.2v1.46c-.12-.08-.25-.15-.38-.21-.14-.06-.28-.11-.43-.15-.15-.04-.29-.07-.44-.09-.15-.02-.28-.03-.41-.03-.18,0-.34.02-.49.05s-.27.08-.37.14c-.1.06-.18.14-.23.22-.06.09-.08.18-.08.29,0,.12.03.22.09.32s.15.18.26.26.25.16.42.24c.16.08.35.16.55.25.28.12.53.24.75.37.22.13.41.28.57.45s.28.36.37.57c.08.21.13.46.13.74,0,.39-.07.72-.22.98-.15.26-.35.48-.6.64-.25.16-.55.28-.89.35-.34.07-.69.11-1.07.11s-.75-.03-1.1-.1c-.35-.06-.65-.16-.9-.29Z"/>
        <path class="cls-5" d="m151.61,498.41c-.26,0-.47-.08-.64-.23-.17-.16-.25-.34-.25-.57s.08-.42.25-.57.38-.22.64-.22.48.07.64.22c.17.15.25.34.25.57s-.08.43-.25.58c-.16.15-.38.22-.64.22Zm.76,5.79h-1.54v-5h1.54v5Z"/>
        <path class="cls-5" d="m156.93,500.59c-.19-.1-.4-.15-.65-.15-.33,0-.6.12-.79.37-.19.25-.28.58-.28,1v2.39h-1.54v-5h1.54v.93h.02c.24-.68.68-1.02,1.32-1.02.16,0,.29.02.38.06v1.42Z"/>
        <path class="cls-5" d="m165.62,504.2h-1.54v-2.85c0-.73-.27-1.09-.8-1.09-.25,0-.46.11-.62.33-.16.22-.24.49-.24.82v2.8h-1.54v-2.88c0-.71-.26-1.06-.79-1.06-.26,0-.47.1-.63.31-.16.21-.24.49-.24.85v2.78h-1.54v-5h1.54v.78h.02c.16-.27.38-.48.67-.65.29-.17.6-.25.95-.25.71,0,1.19.31,1.45.93.38-.62.94-.93,1.68-.93,1.09,0,1.63.67,1.63,2.01v3.11Z"/>
        <path class="cls-5" d="m169.86,504.14c-.23.12-.57.18-1.03.18-1.09,0-1.63-.56-1.63-1.69v-2.29h-.81v-1.14h.81v-1.08l1.54-.44v1.52h1.12v1.14h-1.12v2.02c0,.52.21.78.62.78.16,0,.33-.05.5-.14v1.14Z"/>
        <path class="cls-5" d="m173.08,504.32c-.83,0-1.49-.23-1.97-.7-.48-.47-.71-1.1-.71-1.9s.25-1.47.74-1.94c.5-.47,1.16-.7,2.01-.7s1.48.23,1.95.7c.47.47.71,1.08.71,1.85,0,.83-.24,1.49-.73,1.97-.49.48-1.15.72-2,.72Zm.04-4.06c-.36,0-.65.13-.85.38-.2.25-.3.61-.3,1.06,0,.96.39,1.44,1.16,1.44s1.11-.49,1.11-1.48c0-.93-.37-1.4-1.12-1.4Z"/>
        <path class="cls-5" d="m181.64,504.2h-1.54v-2.78c0-.77-.28-1.16-.83-1.16-.27,0-.49.1-.66.31s-.26.47-.26.78v2.85h-1.54v-5h1.54v.79h.02c.37-.61.9-.91,1.61-.91,1.11,0,1.66.69,1.66,2.06v3.06Z"/>
        <path class="cls-5" d="m187.35,502.14h-3.26c.05.73.51,1.09,1.37,1.09.55,0,1.03-.13,1.45-.39v1.11c-.46.25-1.06.37-1.8.37-.81,0-1.43-.22-1.88-.67-.45-.45-.67-1.07-.67-1.87s.24-1.49.72-1.97c.48-.48,1.07-.73,1.78-.73s1.29.22,1.69.65c.4.43.6,1.02.6,1.76v.65Zm-1.43-.95c0-.72-.29-1.07-.87-1.07-.25,0-.46.1-.64.31-.18.21-.29.46-.33.77h1.84Z"/>
      </g>
      <g>
        <path class="cls-5" d="m92.81,310.75h-2v5.72h-1.58v-5.72h-1.99v-1.28h5.57v1.28Z"/>
        <path class="cls-5" d="m95.08,316.59c-.83,0-1.49-.23-1.97-.7-.48-.47-.71-1.1-.71-1.9s.25-1.47.74-1.94c.5-.47,1.16-.7,2.01-.7s1.48.23,1.95.7c.47.47.71,1.08.71,1.85,0,.83-.24,1.49-.73,1.97-.49.48-1.15.72-2,.72Zm.04-4.06c-.36,0-.65.12-.85.38-.2.25-.3.61-.3,1.06,0,.96.39,1.44,1.16,1.44s1.11-.49,1.11-1.48c0-.93-.37-1.4-1.12-1.4Z"/>
        <path class="cls-5" d="m98.49,316.34v-1.25c.25.15.51.27.76.34.25.07.49.11.71.11.27,0,.49-.04.65-.11.16-.08.24-.19.24-.34,0-.1-.04-.18-.11-.24-.07-.07-.16-.12-.28-.17-.11-.05-.23-.09-.37-.13s-.26-.08-.39-.13c-.2-.08-.37-.16-.53-.24-.15-.09-.28-.19-.38-.3-.1-.11-.18-.25-.23-.4-.05-.15-.08-.33-.08-.53,0-.28.06-.52.18-.72.12-.2.28-.37.49-.5.2-.13.44-.22.7-.28.26-.06.54-.09.82-.09.22,0,.45.02.67.05s.45.08.67.15v1.19c-.2-.11-.4-.2-.63-.26-.22-.06-.44-.08-.66-.08-.1,0-.2,0-.29.03-.09.02-.17.04-.24.08s-.12.08-.16.13-.06.12-.06.18c0,.09.03.17.09.23.06.06.13.12.23.17.09.05.2.09.31.13.12.04.23.08.34.12.21.07.39.15.56.23.17.08.31.18.43.3.12.11.21.25.27.4.06.15.1.33.1.55,0,.3-.06.55-.19.76-.13.21-.3.38-.51.51-.21.13-.46.23-.74.29-.28.06-.57.09-.87.09-.55,0-1.06-.08-1.53-.25Z"/>
        <path class="cls-5" d="m107,316.29c-.35.2-.85.3-1.51.3-.77,0-1.39-.23-1.87-.7-.48-.47-.71-1.07-.71-1.8,0-.85.25-1.52.76-2.01.51-.49,1.19-.73,2.04-.73.59,0,1.02.08,1.28.23v1.31c-.32-.24-.68-.36-1.08-.36-.44,0-.79.13-1.05.39-.26.26-.39.62-.39,1.07s.12.79.37,1.04c.25.25.59.38,1.02.38.38,0,.76-.12,1.13-.36v1.24Z"/>
        <path class="cls-5" d="m110.4,316.59c-.83,0-1.49-.23-1.97-.7-.48-.47-.71-1.1-.71-1.9s.25-1.47.74-1.94c.5-.47,1.16-.7,2.01-.7s1.48.23,1.95.7c.47.47.71,1.08.71,1.85,0,.83-.24,1.49-.73,1.97-.49.48-1.15.72-2,.72Zm.04-4.06c-.36,0-.65.12-.85.38-.2.25-.3.61-.3,1.06,0,.96.39,1.44,1.16,1.44s1.11-.49,1.11-1.48c0-.93-.37-1.4-1.12-1.4Z"/>
        <path class="cls-5" d="m115.67,316.47h-1.54v-7.4h1.54v7.4Z"/>
        <path class="cls-5" d="m121.13,316.47h-1.46v-.72h-.02c-.33.56-.83.84-1.49.84-.49,0-.87-.14-1.15-.41-.28-.27-.42-.64-.42-1.1,0-.97.57-1.53,1.72-1.68l1.36-.18c0-.55-.3-.82-.89-.82s-1.16.18-1.7.53v-1.16c.21-.11.51-.21.88-.29.37-.08.71-.13,1.02-.13,1.43,0,2.14.71,2.14,2.13v2.99Zm-1.45-2.03v-.34l-.91.12c-.5.06-.75.29-.75.68,0,.18.06.32.18.43.12.11.29.17.5.17.29,0,.53-.1.71-.3s.27-.45.27-.76Z"/>
        <path class="cls-5" d="m127.18,316.47h-1.54v-2.78c0-.78-.28-1.16-.83-1.16-.27,0-.49.1-.66.31s-.26.46-.26.78v2.85h-1.54v-5h1.54v.79h.02c.37-.61.9-.91,1.61-.91,1.11,0,1.66.69,1.66,2.06v3.06Z"/>
        <path class="cls-5" d="m130.78,316.59c-.83,0-1.49-.23-1.97-.7-.48-.47-.71-1.1-.71-1.9s.25-1.47.74-1.94c.5-.47,1.16-.7,2.01-.7s1.48.23,1.95.7c.47.47.71,1.08.71,1.85,0,.83-.24,1.49-.73,1.97-.49.48-1.15.72-2,.72Zm.04-4.06c-.36,0-.65.12-.85.38-.2.25-.3.61-.3,1.06,0,.96.39,1.44,1.16,1.44s1.11-.49,1.11-1.48c0-.93-.37-1.4-1.12-1.4Z"/>
        <path class="cls-5" d="m95.87,328.47h-1.56v-4.19c0-.45.02-.95.06-1.5h-.04c-.08.43-.15.74-.22.93l-1.64,4.76h-1.29l-1.67-4.71c-.05-.13-.12-.45-.22-.98h-.04c.04.69.06,1.29.06,1.82v3.87h-1.42v-7h2.31l1.43,4.15c.11.33.2.67.25,1h.03c.09-.39.18-.72.28-1.01l1.43-4.14h2.25v7Z"/>
        <path class="cls-5" d="m101.47,328.47h-1.46v-.72h-.02c-.33.56-.83.84-1.49.84-.49,0-.87-.14-1.15-.41-.28-.27-.42-.64-.42-1.1,0-.97.57-1.53,1.72-1.68l1.36-.18c0-.55-.3-.82-.89-.82s-1.16.18-1.7.53v-1.16c.21-.11.51-.21.88-.29.37-.08.71-.13,1.02-.13,1.43,0,2.14.71,2.14,2.13v2.99Zm-1.45-2.03v-.34l-.91.12c-.5.06-.75.29-.75.68,0,.18.06.32.18.43.12.11.29.17.5.17.29,0,.53-.1.71-.3s.27-.45.27-.76Z"/>
        <path class="cls-5" d="m107.58,328.47h-1.54v-.69h-.02c-.35.54-.87.81-1.55.81-.62,0-1.13-.22-1.51-.66-.38-.44-.57-1.06-.57-1.85s.21-1.49.63-1.99.97-.75,1.65-.75c.64,0,1.09.23,1.35.69h.02v-2.97h1.54v7.4Zm-1.51-2.43v-.38c0-.33-.09-.6-.28-.81s-.43-.32-.74-.32c-.34,0-.61.13-.8.4s-.29.64-.29,1.11c0,.44.09.78.28,1.02.19.24.44.36.77.36s.57-.13.76-.38c.2-.25.3-.58.3-1Z"/>
        <path class="cls-5" d="m113.38,326.41h-3.26c.05.73.51,1.09,1.37,1.09.55,0,1.03-.13,1.45-.39v1.11c-.46.25-1.06.37-1.8.37-.81,0-1.43-.22-1.88-.67-.45-.45-.67-1.07-.67-1.87s.24-1.49.72-1.97c.48-.49,1.07-.73,1.78-.73s1.29.22,1.69.65c.4.43.6,1.02.6,1.76v.65Zm-1.43-.95c0-.72-.29-1.07-.87-1.07-.25,0-.46.1-.64.31-.18.21-.29.46-.33.77h1.84Z"/>
        <path class="cls-5" d="m117.56,324.86c-.19-.1-.4-.15-.65-.15-.33,0-.6.12-.79.37-.19.25-.28.58-.28,1v2.39h-1.54v-5h1.54v.93h.02c.24-.68.68-1.02,1.32-1.02.16,0,.29.02.38.06v1.42Z"/>
        <path class="cls-5" d="m123.13,328.47h-1.54v-2.78c0-.78-.28-1.16-.83-1.16-.27,0-.49.1-.66.31s-.26.46-.26.78v2.85h-1.54v-5h1.54v.79h.02c.37-.61.9-.91,1.61-.91,1.11,0,1.66.69,1.66,2.06v3.06Z"/>
        <path class="cls-5" d="m126.73,328.59c-.83,0-1.49-.23-1.97-.7-.48-.47-.71-1.1-.71-1.9s.25-1.47.74-1.94c.5-.47,1.16-.7,2.01-.7s1.48.23,1.95.7c.47.47.71,1.08.71,1.85,0,.83-.24,1.49-.73,1.97-.49.48-1.15.72-2,.72Zm.04-4.06c-.36,0-.65.12-.85.38-.2.25-.3.61-.3,1.06,0,.96.39,1.44,1.16,1.44s1.11-.49,1.11-1.48c0-.93-.37-1.4-1.12-1.4Z"/>
      </g>
    </g>
  </g>
  <g id="Kreise">
    <g>
      <circle class="cls-4" cx="333.06" cy="7.25" r="7.25"/>
      <circle class="cls-4" cx="363.17" cy="39.28" r="5.5"/>
      <circle class="cls-4" cx="288.93" cy="99.64" r="5.33"/>
      <circle class="cls-4" cx="311.31" cy="172.97" r="7.15"/>
      <circle class="cls-4" cx="226.14" cy="201.61" r="5.68"/>
      <circle class="cls-4" cx="274.91" cy="240.51" r="5.33"/>
      <circle class="cls-4" cx="247.68" cy="301.33" r="5.33"/>
      <circle class="cls-4" cx="138.67" cy="324.62" r="5.79"/>
      <circle class="cls-4" cx="218.37" cy="397.26" r="5.91"/>
      <circle class="cls-4" cx="230.42" cy="430.39" r="6.02"/>
      <circle class="cls-4" cx="246.18" cy="481.25" r="5.44"/>
      <circle class="cls-4" cx="136.36" cy="501.23" r="5.68"/>
      <circle class="cls-4" cx="80.97" cy="529.9" r="7.27"/>
    </g>
  </g>
  <g id="Richtungen">
    <g>
      <polygon class="cls-1" points="79.4 144.71 38.25 152.25 79.54 159.93 87.16 201.15 94.78 159.94 135.93 152.45 94.84 144.67 87.32 103.32 79.4 144.71"/>
      <g>
        <path class="cls-3" d="m39.32,152.25c-.35,0-.71,0-1.06,0,3.91-.81,7.83-1.53,11.74-2.24,9.68-1.76,19.37-3.51,29.05-5.29.39-.07.6,0,.86.27,2.26,2.28,4.54,4.55,6.81,6.83.13.13.23.3.34.46-.24,0-.48-.02-.71-.02-15.67,0-31.34,0-47.02,0Z"/>
        <path class="cls-3" d="m87.05,152.27s.01,0,.02,0c.05-.27.15-.54.15-.81,0-15.7,0-31.4,0-47.1v-1.05s.07,0,.1,0c2.5,13.72,4.99,27.44,7.52,41.35,2.5-2.51,4.87-4.9,7.28-7.32.03.14.06.18.05.21-1.17,2.47-2.35,4.94-3.55,7.4-.06.13-.37.23-.54.21-.91-.13-1.81-.29-2.71-.49-.38-.08-.61,0-.88.27-2.26,2.28-4.54,4.55-6.82,6.82-.13.13-.25.28-.5.56,16.37,0,32.55,0,48.73,0v.12c-13.64,2.48-27.29,4.97-41.14,7.49,2.55,2.53,4.95,4.91,7.42,7.35-.16,0-.21.02-.24,0-2.49-1.18-4.98-2.36-7.45-3.57-.13-.06-.23-.37-.2-.54.13-.91.29-1.81.49-2.71.08-.38-.01-.61-.27-.87-2.3-2.28-4.58-4.57-6.87-6.86-.12-.12-.26-.22-.48-.41,0,16.36,0,32.59,0,48.81-.04,0-.08,0-.12.01-2.49-13.69-4.98-27.38-7.5-41.23-2.48,2.48-4.86,4.85-7.24,7.22-.05-.04-.1-.07-.14-.11,1.23-2.57,2.46-5.13,3.7-7.74,1.02.19,2,.35,2.98.55.45.09.76.03,1.11-.32,2.26-2.29,4.54-4.55,6.81-6.83.13-.13.21-.29.32-.43l-.02.02s-.01-.02-.02-.02Z"/>
        <path class="cls-3" d="m72.53,137.3c2.43,1.16,5.01,2.4,7.63,3.65-.21,1.17-.42,2.33-.6,3.32-2.36-2.34-4.74-4.7-7.03-6.97Z"/>
      </g>
    </g>
    <path class="cls-3" d="m91.43,100.45h-2.09l-3.78-5.76c-.22-.34-.38-.59-.46-.76h-.03c.03.32.05.82.05,1.48v5.04h-1.95v-9.17h2.23l3.64,5.58c.17.25.32.5.46.75h.03c-.03-.21-.05-.63-.05-1.26v-5.07h1.95v9.17Z"/>
    <path class="cls-3" d="m85.48,211.5v-2.05c.37.31.77.54,1.21.7s.87.23,1.32.23c.26,0,.49-.02.68-.07s.36-.11.49-.2c.13-.08.23-.18.29-.29.06-.11.1-.24.1-.37,0-.18-.05-.34-.15-.48-.1-.14-.24-.27-.42-.39-.18-.12-.39-.23-.63-.35s-.51-.22-.79-.34c-.72-.3-1.25-.66-1.6-1.09-.35-.43-.53-.95-.53-1.56,0-.48.1-.89.29-1.23s.45-.63.78-.85c.33-.22.71-.38,1.15-.49s.9-.16,1.38-.16.9.03,1.27.09c.37.06.71.15,1.02.27v1.91c-.15-.11-.32-.2-.5-.28s-.37-.15-.56-.2c-.19-.05-.38-.09-.57-.12s-.37-.04-.54-.04c-.23,0-.45.02-.64.07s-.35.11-.49.19c-.13.08-.23.18-.31.29-.07.11-.11.24-.11.38,0,.15.04.29.12.41.08.12.2.24.35.35.15.11.33.22.54.32.21.1.45.21.72.32.37.15.7.32.99.49.29.17.54.37.75.59.21.22.37.47.48.75.11.28.17.6.17.98,0,.51-.1.94-.29,1.29-.19.35-.46.63-.79.84-.33.22-.72.37-1.16.46s-.91.14-1.4.14-.98-.04-1.44-.13c-.45-.09-.85-.21-1.18-.38Z"/>
    <path class="cls-3" d="m143.1,155.89c-1.31,0-2.38-.43-3.21-1.28s-1.24-1.97-1.24-3.34c0-1.45.42-2.62,1.26-3.52.84-.9,1.95-1.34,3.34-1.34,1.31,0,2.37.43,3.18,1.29.81.86,1.21,1.99,1.21,3.39s-.42,2.6-1.26,3.49-1.93,1.32-3.28,1.32Zm.09-7.71c-.73,0-1.3.27-1.73.82-.43.54-.64,1.26-.64,2.16s.21,1.63.64,2.16c.43.53.98.79,1.68.79s1.28-.26,1.7-.77c.42-.51.63-1.23.63-2.14s-.2-1.69-.61-2.22c-.4-.53-.96-.79-1.66-.79Z"/>
    <path class="cls-3" d="m36.87,146.56l-2.42,9.17h-2.29l-1.52-5.89c-.08-.31-.13-.65-.15-1.03h-.03c-.04.42-.09.76-.17,1.03l-1.56,5.89h-2.39l-2.41-9.17h2.26l1.29,6.11c.06.26.1.61.12,1.05h.04c.02-.33.08-.69.19-1.07l1.66-6.08h2.21l1.5,6.16c.06.23.1.55.15.99h.03c.02-.34.06-.68.13-1.02l1.27-6.12h2.09Z"/>
  </g>
</svg>